<svg width="70" height="70" viewBox="0 0 70 70" fill="none" xmlns="http://www.w3.org/2000/svg">
<g clip-path="url(#clip0_2422_14745)">
<path d="M52.912 42.3895C49.3279 47.2519 39.665 46.2129 31.3295 40.0686C22.9939 33.9244 19.1421 25.0018 22.7262 20.1394C26.3103 15.277 35.9731 16.3161 44.3087 22.4603C52.6443 28.6045 56.4961 37.5271 52.912 42.3895Z" stroke="#114A55" stroke-width="1.5" stroke-linecap="round" stroke-linejoin="round"/>
<path d="M22.7256 20.1394L17.1631 27.6858C13.5787 32.5486 17.4338 41.4731 25.7663 47.6151C34.0988 53.7571 43.7645 54.7987 47.3488 49.936L52.9114 42.3895" stroke="#114A55" stroke-width="1.5" stroke-linecap="round" stroke-linejoin="round"/>
<path d="M22.9199 30.4099L17.3574 37.9564" stroke="#114A55" stroke-width="1.5" stroke-linecap="round" stroke-linejoin="round"/>
<path d="M31.3291 40.0686L25.7666 47.615" stroke="#114A55" stroke-width="1.5" stroke-linecap="round" stroke-linejoin="round"/>
<path d="M43.0439 45.2434L37.4814 52.7899" stroke="#114A55" stroke-width="1.5" stroke-linecap="round" stroke-linejoin="round"/>
</g>
<defs>
<clipPath id="clip0_2422_14745">
<rect width="50" height="50" fill="white" transform="matrix(-0.593337 0.804954 0.804954 0.593337 29.7471 0.0803223)"/>
</clipPath>
</defs>
</svg>
