<svg width="166" height="165" viewBox="0 0 166 165" fill="none" xmlns="http://www.w3.org/2000/svg">
<g clip-path="url(#clip0_2422_14753)">
<path d="M115.534 115.156C103.079 122.576 82.6709 111.283 69.9503 89.9327C57.2297 68.5821 57.0141 45.2586 69.4686 37.8383C81.9231 30.418 102.332 41.7107 115.052 63.0613C127.773 84.412 127.988 107.735 115.534 115.156Z" stroke="#114A55" stroke-width="3" stroke-linecap="round" stroke-linejoin="round"/>
<path d="M69.4678 37.8384L50.1384 49.3547C37.683 56.7755 37.9042 80.1063 50.6201 101.449C63.3361 122.792 83.7483 134.093 96.2037 126.672L115.533 115.156" stroke="#114A55" stroke-width="3" stroke-linecap="round" stroke-linejoin="round"/>
<path d="M60.3369 60.739L41.0075 72.2553" stroke="#114A55" stroke-width="3" stroke-linecap="round" stroke-linejoin="round"/>
<path d="M69.9502 89.9326L50.6208 101.449" stroke="#114A55" stroke-width="3" stroke-linecap="round" stroke-linejoin="round"/>
<path d="M91.0479 112.284L71.7185 123.8" stroke="#114A55" stroke-width="3" stroke-linecap="round" stroke-linejoin="round"/>
</g>
<defs>
<clipPath id="clip0_2422_14753">
<rect width="120" height="120" fill="white" transform="matrix(-0.859083 0.511836 0.511836 0.859083 103.671 0)"/>
</clipPath>
</defs>
</svg>
