<svg width="204" height="204" viewBox="0 0 204 204" fill="none" xmlns="http://www.w3.org/2000/svg">
<g clip-path="url(#clip0_2422_14760)">
<path d="M62.3801 144.331C78.2248 153.126 103.292 138.236 118.368 111.074C133.445 83.9117 132.823 54.7628 116.978 45.9679C101.134 37.1731 76.0668 52.0628 60.99 79.225C45.9131 106.387 46.5355 135.536 62.3801 144.331Z" stroke="#114A55" stroke-width="3" stroke-linecap="round" stroke-linejoin="round"/>
<path d="M116.979 45.9678L141.569 59.6173C157.415 68.4127 158.031 97.571 142.959 124.723C127.888 151.876 102.817 166.776 86.9711 157.98L62.3804 144.331" stroke="#114A55" stroke-width="3" stroke-linecap="round" stroke-linejoin="round"/>
<path d="M129.262 74.2312L153.852 87.8807" stroke="#114A55" stroke-width="3" stroke-linecap="round" stroke-linejoin="round"/>
<path d="M118.368 111.074L142.959 124.723" stroke="#114A55" stroke-width="3" stroke-linecap="round" stroke-linejoin="round"/>
<path d="M92.8633 139.806L117.454 153.456" stroke="#114A55" stroke-width="3" stroke-linecap="round" stroke-linejoin="round"/>
</g>
<defs>
<clipPath id="clip0_2422_14760">
<rect width="150" height="150" fill="white" transform="translate(72.7979) rotate(29.0332)"/>
</clipPath>
</defs>
</svg>
