<svg width="76" height="76" viewBox="0 0 76 76" fill="none" xmlns="http://www.w3.org/2000/svg">
<path d="M0 38C0 17.0132 17.0132 0 38 0C58.9868 0 76 17.0132 76 38C76 58.9868 58.9868 76 38 76C17.0132 76 0 58.9868 0 38Z" fill="#31C440"/>
<g clip-path="url(#clip0_2422_15096)">
<path d="M48.5 30.7944V29.75C48.5 25.0475 41.4069 21.5 32 21.5C22.5931 21.5 15.5 25.0475 15.5 29.75V37.25C15.5 41.1669 20.4219 44.2794 27.5 45.2113V46.25C27.5 50.9525 34.5931 54.5 44 54.5C53.4069 54.5 60.5 50.9525 60.5 46.25V38.75C60.5 34.8687 55.7337 31.7525 48.5 30.7944ZM24.5 41.5381C20.8269 40.5125 18.5 38.8231 18.5 37.25V34.6119C20.03 35.6956 22.0794 36.5694 24.5 37.1562V41.5381ZM39.5 37.1562C41.9206 36.5694 43.97 35.6956 45.5 34.6119V37.25C45.5 38.8231 43.1731 40.5125 39.5 41.5381V37.1562ZM36.5 50.5381C32.8269 49.5125 30.5 47.8231 30.5 46.25V45.4681C30.9931 45.4869 31.4919 45.5 32 45.5C32.7275 45.5 33.4381 45.4756 34.1356 45.4344C34.9105 45.7118 35.6998 45.9471 36.5 46.1394V50.5381ZM36.5 42.1719C35.0101 42.392 33.506 42.5016 32 42.5C30.494 42.5016 28.9899 42.392 27.5 42.1719V37.7113C28.9921 37.9057 30.4953 38.0021 32 38C33.5047 38.0021 35.0079 37.9057 36.5 37.7113V42.1719ZM48.5 51.1719C45.5159 51.6094 42.4841 51.6094 39.5 51.1719V46.7C40.9916 46.9005 42.495 47.0007 44 47C45.5047 47.0021 47.0079 46.9057 48.5 46.7113V51.1719ZM57.5 46.25C57.5 47.8231 55.1731 49.5125 51.5 50.5381V46.1562C53.9206 45.5694 55.97 44.6956 57.5 43.6119V46.25Z" fill="white"/>
</g>
<defs>
<clipPath id="clip0_2422_15096">
<rect width="48" height="48" fill="white" transform="translate(14 14)"/>
</clipPath>
</defs>
</svg>
