<svg width="344" height="60" viewBox="0 0 344 60" fill="none" xmlns="http://www.w3.org/2000/svg">
<rect width="344" height="60" rx="30" fill="#31C440"/>
<path d="M41.6898 23.8V25.464H38.1218V35H36.4578V25.464H32.8978V23.8H41.6898ZM42.1397 35V27H43.8037V27.848C44.081 27.5173 44.4224 27.256 44.8277 27.064C45.233 26.872 45.6704 26.776 46.1397 26.776C46.4384 26.776 46.7344 26.816 47.0277 26.896L46.3637 28.576C46.1557 28.496 45.9477 28.456 45.7397 28.456C45.3877 28.456 45.065 28.544 44.7717 28.72C44.4784 28.8907 44.2437 29.1227 44.0677 29.416C43.8917 29.7093 43.8037 30.0347 43.8037 30.392V35H42.1397ZM53.4322 27H55.2082L50.8242 39H49.0562L50.5042 35L47.6322 27H49.4482L51.3362 32.72L53.4322 27ZM65.8553 35.208C65.098 35.208 64.386 35.0587 63.7193 34.76C63.0526 34.456 62.466 34.0373 61.9593 33.504C61.4526 32.9707 61.0553 32.3547 60.7673 31.656C60.4793 30.952 60.3353 30.2 60.3353 29.4C60.3353 28.6 60.4793 27.8507 60.7673 27.152C61.0553 26.448 61.4526 25.8293 61.9593 25.296C62.466 24.7627 63.0526 24.3467 63.7193 24.048C64.386 23.744 65.098 23.592 65.8553 23.592C66.618 23.592 67.3326 23.744 67.9993 24.048C68.666 24.3467 69.2526 24.7627 69.7593 25.296C70.266 25.8293 70.6606 26.448 70.9433 27.152C71.2313 27.8507 71.3753 28.6 71.3753 29.4C71.3753 30.2 71.2313 30.952 70.9433 31.656C70.6606 32.3547 70.266 32.9707 69.7593 33.504C69.2526 34.0373 68.666 34.456 67.9993 34.76C67.3326 35.0587 66.618 35.208 65.8553 35.208ZM65.8553 33.544C66.3886 33.544 66.8873 33.4347 67.3513 33.216C67.8153 32.9973 68.2233 32.6987 68.5753 32.32C68.9326 31.936 69.21 31.496 69.4073 31C69.61 30.4987 69.7113 29.9653 69.7113 29.4C69.7113 28.8347 69.61 28.3013 69.4073 27.8C69.21 27.2987 68.9326 26.8587 68.5753 26.48C68.2233 26.096 67.8153 25.7973 67.3513 25.584C66.8873 25.3653 66.3886 25.256 65.8553 25.256C65.322 25.256 64.8233 25.3653 64.3593 25.584C63.8953 25.8027 63.4846 26.104 63.1273 26.488C62.7753 26.8667 62.498 27.3067 62.2953 27.808C62.098 28.304 61.9993 28.8347 61.9993 29.4C61.9993 29.9707 62.098 30.5067 62.2953 31.008C62.498 31.504 62.7753 31.944 63.1273 32.328C63.4846 32.7067 63.8953 33.0053 64.3593 33.224C64.8233 33.4373 65.322 33.544 65.8553 33.544ZM72.4447 32V27H74.1087V31.592C74.1087 31.9493 74.1967 32.2747 74.3727 32.568C74.5487 32.8613 74.7834 33.096 75.0767 33.272C75.37 33.4427 75.6927 33.528 76.0447 33.528C76.402 33.528 76.7247 33.4427 77.0127 33.272C77.306 33.096 77.538 32.8613 77.7087 32.568C77.8847 32.2747 77.9727 31.9493 77.9727 31.592V27H79.6367L79.6447 35H77.9807L77.9727 34.136C77.7007 34.4667 77.362 34.728 76.9567 34.92C76.5514 35.112 76.1167 35.208 75.6527 35.208C75.0607 35.208 74.522 35.064 74.0367 34.776C73.5514 34.488 73.1647 34.1013 72.8767 33.616C72.5887 33.1307 72.4447 32.592 72.4447 32ZM81.2491 35V27H82.9131V27.848C83.1904 27.5173 83.5317 27.256 83.9371 27.064C84.3424 26.872 84.7797 26.776 85.2491 26.776C85.5477 26.776 85.8437 26.816 86.1371 26.896L85.4731 28.576C85.2651 28.496 85.0571 28.456 84.8491 28.456C84.4971 28.456 84.1744 28.544 83.8811 28.72C83.5877 28.8907 83.3531 29.1227 83.1771 29.416C83.0011 29.7093 82.9131 30.0347 82.9131 30.392V35H81.2491ZM96.2924 35.208C95.5351 35.208 94.8231 35.0587 94.1564 34.76C93.4898 34.456 92.9031 34.04 92.3964 33.512C91.8951 32.9787 91.5004 32.36 91.2124 31.656C90.9298 30.952 90.7884 30.2 90.7884 29.4C90.7884 28.6 90.9298 27.848 91.2124 27.144C91.5004 26.44 91.8951 25.824 92.3964 25.296C92.9031 24.7627 93.4898 24.3467 94.1564 24.048C94.8231 23.744 95.5351 23.592 96.2924 23.592C97.1991 23.592 98.0338 23.8027 98.7964 24.224C99.5591 24.6453 100.191 25.2053 100.692 25.904L99.2124 26.696C98.8658 26.2587 98.4364 25.9093 97.9244 25.648C97.4124 25.3867 96.8684 25.256 96.2924 25.256C95.7591 25.256 95.2604 25.3653 94.7964 25.584C94.3324 25.8027 93.9244 26.1013 93.5724 26.48C93.2204 26.8587 92.9458 27.2987 92.7484 27.8C92.5511 28.3013 92.4524 28.8347 92.4524 29.4C92.4524 29.9707 92.5511 30.5067 92.7484 31.008C92.9458 31.504 93.2204 31.944 93.5724 32.328C93.9298 32.7067 94.3404 33.0053 94.8044 33.224C95.2684 33.4373 95.7644 33.544 96.2924 33.544C96.8791 33.544 97.4258 33.4133 97.9324 33.152C98.4444 32.8853 98.8711 32.5333 99.2124 32.096L100.692 32.904C100.191 33.6027 99.5591 34.1627 98.7964 34.584C98.0338 35 97.1991 35.208 96.2924 35.208ZM105.347 35.208C104.611 35.208 103.939 35.0187 103.331 34.64C102.729 34.2613 102.246 33.7547 101.883 33.12C101.526 32.48 101.347 31.7733 101.347 31C101.347 30.4133 101.451 29.8667 101.659 29.36C101.867 28.848 102.153 28.4 102.515 28.016C102.883 27.6267 103.31 27.3227 103.795 27.104C104.281 26.8853 104.798 26.776 105.347 26.776C106.083 26.776 106.753 26.9653 107.355 27.344C107.963 27.7227 108.446 28.232 108.803 28.872C109.166 29.512 109.347 30.2213 109.347 31C109.347 31.5813 109.243 32.1253 109.035 32.632C108.827 33.1387 108.539 33.5867 108.171 33.976C107.809 34.36 107.385 34.6613 106.899 34.88C106.419 35.0987 105.902 35.208 105.347 35.208ZM105.347 33.544C105.79 33.544 106.187 33.4267 106.539 33.192C106.891 32.9573 107.169 32.648 107.371 32.264C107.579 31.8747 107.683 31.4533 107.683 31C107.683 30.536 107.577 30.1093 107.363 29.72C107.155 29.3307 106.875 29.0213 106.523 28.792C106.171 28.5573 105.779 28.44 105.347 28.44C104.91 28.44 104.513 28.5573 104.155 28.792C103.803 29.0267 103.523 29.3387 103.315 29.728C103.113 30.1173 103.011 30.5413 103.011 31C103.011 31.4747 103.118 31.904 103.331 32.288C103.545 32.672 103.827 32.9787 104.179 33.208C104.537 33.432 104.926 33.544 105.347 33.544ZM110.64 35V27H112.304V27.848C112.581 27.5173 112.92 27.256 113.32 27.064C113.725 26.872 114.162 26.776 114.632 26.776C115.202 26.776 115.728 26.9147 116.208 27.192C116.688 27.464 117.069 27.8267 117.352 28.28C117.634 27.8267 118.01 27.464 118.48 27.192C118.954 26.9147 119.477 26.776 120.048 26.776C120.64 26.776 121.178 26.92 121.664 27.208C122.149 27.496 122.536 27.8827 122.824 28.368C123.112 28.8533 123.256 29.392 123.256 29.984V35H121.592V30.408C121.592 30.056 121.506 29.7333 121.336 29.44C121.165 29.1467 120.936 28.9093 120.648 28.728C120.36 28.5467 120.04 28.456 119.688 28.456C119.336 28.456 119.016 28.5413 118.728 28.712C118.44 28.8827 118.21 29.1147 118.04 29.408C117.869 29.7013 117.784 30.0347 117.784 30.408V35H116.12V30.408C116.12 30.0347 116.034 29.7013 115.864 29.408C115.693 29.1147 115.461 28.8827 115.168 28.712C114.88 28.5413 114.56 28.456 114.208 28.456C113.861 28.456 113.541 28.5467 113.248 28.728C112.96 28.9093 112.73 29.1467 112.56 29.44C112.389 29.7333 112.304 30.056 112.304 30.408V35H110.64ZM126.522 39H124.858V27H126.522V28.176C126.789 27.7653 127.13 27.432 127.546 27.176C127.962 26.92 128.453 26.792 129.018 26.792C129.6 26.792 130.144 26.9013 130.65 27.12C131.162 27.3387 131.61 27.6427 131.994 28.032C132.378 28.416 132.68 28.8613 132.898 29.368C133.117 29.8747 133.226 30.4187 133.226 31C133.226 31.5813 133.117 32.128 132.898 32.64C132.68 33.152 132.378 33.6027 131.994 33.992C131.61 34.376 131.162 34.6773 130.65 34.896C130.144 35.1147 129.6 35.224 129.018 35.224C128.453 35.224 127.962 35.096 127.546 34.84C127.13 34.5787 126.789 34.2453 126.522 33.84V39ZM129.002 28.4C128.538 28.4 128.13 28.5173 127.778 28.752C127.426 28.9867 127.152 29.3013 126.954 29.696C126.757 30.0853 126.658 30.52 126.658 31C126.658 31.48 126.757 31.9173 126.954 32.312C127.152 32.7067 127.426 33.0213 127.778 33.256C128.13 33.4907 128.538 33.608 129.002 33.608C129.461 33.608 129.882 33.4933 130.266 33.264C130.65 33.0293 130.957 32.7147 131.186 32.32C131.416 31.9253 131.53 31.4853 131.53 31C131.53 30.5253 131.416 30.0907 131.186 29.696C130.962 29.3013 130.658 28.9867 130.274 28.752C129.89 28.5173 129.466 28.4 129.002 28.4ZM138.035 35.208C137.299 35.208 136.627 35.0187 136.019 34.64C135.416 34.2613 134.933 33.7547 134.571 33.12C134.213 32.48 134.035 31.7733 134.035 31C134.035 30.4133 134.139 29.8667 134.347 29.36C134.555 28.848 134.84 28.4 135.203 28.016C135.571 27.6267 135.997 27.3227 136.483 27.104C136.968 26.8853 137.485 26.776 138.035 26.776C138.771 26.776 139.44 26.9653 140.043 27.344C140.651 27.7227 141.133 28.232 141.491 28.872C141.853 29.512 142.035 30.2213 142.035 31C142.035 31.5813 141.931 32.1253 141.723 32.632C141.515 33.1387 141.227 33.5867 140.859 33.976C140.496 34.36 140.072 34.6613 139.587 34.88C139.107 35.0987 138.589 35.208 138.035 35.208ZM138.035 33.544C138.477 33.544 138.875 33.4267 139.227 33.192C139.579 32.9573 139.856 32.648 140.059 32.264C140.267 31.8747 140.371 31.4533 140.371 31C140.371 30.536 140.264 30.1093 140.051 29.72C139.843 29.3307 139.563 29.0213 139.211 28.792C138.859 28.5573 138.467 28.44 138.035 28.44C137.597 28.44 137.2 28.5573 136.843 28.792C136.491 29.0267 136.211 29.3387 136.003 29.728C135.8 30.1173 135.699 30.5413 135.699 31C135.699 31.4747 135.805 31.904 136.019 32.288C136.232 32.672 136.515 32.9787 136.867 33.208C137.224 33.432 137.613 33.544 138.035 33.544ZM142.851 32V27H144.515V31.592C144.515 31.9493 144.603 32.2747 144.779 32.568C144.955 32.8613 145.19 33.096 145.483 33.272C145.776 33.4427 146.099 33.528 146.451 33.528C146.808 33.528 147.131 33.4427 147.419 33.272C147.712 33.096 147.944 32.8613 148.115 32.568C148.291 32.2747 148.379 31.9493 148.379 31.592V27H150.043L150.051 35H148.387L148.379 34.136C148.107 34.4667 147.768 34.728 147.363 34.92C146.958 35.112 146.523 35.208 146.059 35.208C145.467 35.208 144.928 35.064 144.443 34.776C143.958 34.488 143.571 34.1013 143.283 33.616C142.995 33.1307 142.851 32.592 142.851 32ZM158.855 29.984V35H157.191V30.392C157.191 30.0347 157.103 29.7093 156.927 29.416C156.757 29.1227 156.525 28.8907 156.231 28.72C155.943 28.544 155.618 28.456 155.255 28.456C154.903 28.456 154.581 28.544 154.287 28.72C153.994 28.8907 153.759 29.1227 153.583 29.416C153.407 29.7093 153.319 30.0347 153.319 30.392V35H151.655V27H153.319V27.848C153.597 27.5173 153.938 27.256 154.343 27.064C154.749 26.872 155.186 26.776 155.655 26.776C156.247 26.776 156.786 26.92 157.271 27.208C157.757 27.496 158.141 27.8827 158.423 28.368C158.711 28.8533 158.855 29.392 158.855 29.984ZM166.528 23H168.192V35H166.528V33.824C166.267 34.24 165.925 34.576 165.504 34.832C165.083 35.0827 164.589 35.208 164.024 35.208C163.443 35.208 162.899 35.0987 162.392 34.88C161.885 34.6613 161.437 34.36 161.048 33.976C160.664 33.5867 160.363 33.1387 160.144 32.632C159.925 32.1253 159.816 31.5813 159.816 31C159.816 30.4187 159.925 29.8747 160.144 29.368C160.363 28.856 160.664 28.408 161.048 28.024C161.437 27.6347 161.885 27.3307 162.392 27.112C162.899 26.8933 163.443 26.784 164.024 26.784C164.589 26.784 165.083 26.912 165.504 27.168C165.925 27.4187 166.267 27.7493 166.528 28.16V23ZM164.04 33.6C164.509 33.6 164.92 33.4853 165.272 33.256C165.624 33.0213 165.896 32.7067 166.088 32.312C166.285 31.9173 166.384 31.48 166.384 31C166.384 30.5147 166.285 30.0747 166.088 29.68C165.891 29.2853 165.616 28.9733 165.264 28.744C164.917 28.5093 164.509 28.392 164.04 28.392C163.576 28.392 163.152 28.5093 162.768 28.744C162.389 28.9787 162.085 29.2933 161.856 29.688C161.632 30.0827 161.52 30.52 161.52 31C161.52 31.4853 161.635 31.9253 161.864 32.32C162.099 32.7093 162.405 33.0213 162.784 33.256C163.168 33.4853 163.587 33.6 164.04 33.6ZM174.192 35V23.8H175.856V35H174.192ZM185.215 29.984V35H183.551V30.392C183.551 30.0347 183.463 29.7093 183.287 29.416C183.116 29.1227 182.884 28.8907 182.591 28.72C182.303 28.544 181.977 28.456 181.615 28.456C181.263 28.456 180.94 28.544 180.647 28.72C180.353 28.8907 180.119 29.1227 179.943 29.416C179.767 29.7093 179.679 30.0347 179.679 30.392V35H178.015V27H179.679V27.848C179.956 27.5173 180.297 27.256 180.703 27.064C181.108 26.872 181.545 26.776 182.015 26.776C182.607 26.776 183.145 26.92 183.631 27.208C184.116 27.496 184.5 27.8827 184.783 28.368C185.071 28.8533 185.215 29.392 185.215 29.984ZM191.036 28.664H189.356L189.348 35H187.684L187.692 28.664H186.42V27H187.692L187.684 24.488H189.348L189.356 27H191.036V28.664ZM195.8 35.208C195.064 35.208 194.392 35.0187 193.784 34.64C193.182 34.2613 192.699 33.7547 192.336 33.12C191.979 32.48 191.8 31.7733 191.8 31C191.8 30.4133 191.904 29.8667 192.112 29.36C192.32 28.848 192.606 28.4 192.968 28.016C193.336 27.6267 193.763 27.3227 194.248 27.104C194.734 26.8853 195.251 26.776 195.8 26.776C196.414 26.776 196.976 26.904 197.488 27.16C198 27.4107 198.438 27.76 198.8 28.208C199.163 28.6507 199.43 29.1627 199.6 29.744C199.771 30.32 199.822 30.9333 199.752 31.584H193.584C193.654 31.952 193.787 32.2853 193.984 32.584C194.187 32.8773 194.443 33.1093 194.752 33.28C195.067 33.4507 195.416 33.5387 195.8 33.544C196.206 33.544 196.574 33.4427 196.904 33.24C197.24 33.0373 197.515 32.7573 197.728 32.4L199.416 32.792C199.096 33.5013 198.614 34.0827 197.968 34.536C197.323 34.984 196.6 35.208 195.8 35.208ZM193.528 30.312H198.072C198.019 29.928 197.883 29.5813 197.664 29.272C197.451 28.9573 197.182 28.7093 196.856 28.528C196.536 28.3413 196.184 28.248 195.8 28.248C195.422 28.248 195.07 28.3387 194.744 28.52C194.424 28.7013 194.158 28.9493 193.944 29.264C193.736 29.5733 193.598 29.9227 193.528 30.312ZM201.077 35V27H202.741V27.848C203.019 27.5173 203.36 27.256 203.765 27.064C204.171 26.872 204.608 26.776 205.077 26.776C205.376 26.776 205.672 26.816 205.965 26.896L205.301 28.576C205.093 28.496 204.885 28.456 204.677 28.456C204.325 28.456 204.003 28.544 203.709 28.72C203.416 28.8907 203.181 29.1227 203.005 29.416C202.829 29.7093 202.741 30.0347 202.741 30.392V35H201.077ZM210.035 35.208C209.299 35.208 208.627 35.0187 208.019 34.64C207.416 34.2613 206.933 33.7547 206.571 33.12C206.213 32.48 206.035 31.7733 206.035 31C206.035 30.4133 206.139 29.8667 206.347 29.36C206.555 28.848 206.84 28.4 207.203 28.016C207.571 27.6267 207.997 27.3227 208.483 27.104C208.968 26.8853 209.485 26.776 210.035 26.776C210.648 26.776 211.211 26.904 211.723 27.16C212.235 27.4107 212.672 27.76 213.035 28.208C213.397 28.6507 213.664 29.1627 213.835 29.744C214.005 30.32 214.056 30.9333 213.987 31.584H207.819C207.888 31.952 208.021 32.2853 208.219 32.584C208.421 32.8773 208.677 33.1093 208.987 33.28C209.301 33.4507 209.651 33.5387 210.035 33.544C210.44 33.544 210.808 33.4427 211.139 33.24C211.475 33.0373 211.749 32.7573 211.963 32.4L213.651 32.792C213.331 33.5013 212.848 34.0827 212.203 34.536C211.557 34.984 210.835 35.208 210.035 35.208ZM207.763 30.312H212.307C212.253 29.928 212.117 29.5813 211.899 29.272C211.685 28.9573 211.416 28.7093 211.091 28.528C210.771 28.3413 210.419 28.248 210.035 28.248C209.656 28.248 209.304 28.3387 208.979 28.52C208.659 28.7013 208.392 28.9493 208.179 29.264C207.971 29.5733 207.832 29.9227 207.763 30.312ZM217.743 35.152C217.321 35.1253 216.911 35.04 216.511 34.896C216.111 34.752 215.759 34.5573 215.455 34.312C215.156 34.0613 214.932 33.768 214.783 33.432L216.199 32.824C216.268 32.968 216.388 33.1093 216.559 33.248C216.735 33.3867 216.94 33.5013 217.175 33.592C217.409 33.6773 217.655 33.72 217.911 33.72C218.161 33.72 218.393 33.6853 218.607 33.616C218.825 33.5413 219.004 33.4293 219.143 33.28C219.281 33.1307 219.351 32.952 219.351 32.744C219.351 32.5093 219.271 32.328 219.111 32.2C218.956 32.0667 218.761 31.9653 218.527 31.896C218.292 31.8267 218.057 31.76 217.823 31.696C217.3 31.5787 216.82 31.4187 216.383 31.216C215.951 31.008 215.607 30.744 215.351 30.424C215.095 30.0987 214.967 29.7013 214.967 29.232C214.967 28.72 215.105 28.2773 215.383 27.904C215.66 27.5253 216.023 27.2347 216.471 27.032C216.924 26.8293 217.407 26.728 217.919 26.728C218.559 26.728 219.145 26.864 219.679 27.136C220.212 27.408 220.62 27.7813 220.903 28.256L219.583 29.04C219.503 28.88 219.383 28.736 219.223 28.608C219.063 28.48 218.881 28.3787 218.679 28.304C218.476 28.224 218.265 28.1787 218.047 28.168C217.775 28.1573 217.521 28.1893 217.287 28.264C217.057 28.3333 216.873 28.4453 216.735 28.6C216.596 28.7547 216.527 28.952 216.527 29.192C216.527 29.4267 216.609 29.6027 216.775 29.72C216.94 29.832 217.148 29.9227 217.399 29.992C217.655 30.0613 217.916 30.1387 218.183 30.224C218.657 30.3733 219.103 30.5573 219.519 30.776C219.935 30.9893 220.271 31.2533 220.527 31.568C220.783 31.8827 220.905 32.2667 220.895 32.72C220.895 33.2213 220.743 33.6613 220.439 34.04C220.14 34.4187 219.751 34.7067 219.271 34.904C218.791 35.1013 218.281 35.184 217.743 35.152ZM226.489 28.664H224.809L224.801 35H223.137L223.145 28.664H221.873V27H223.145L223.137 24.488H224.801L224.809 27H226.489V28.664ZM240.237 23.8V25.464H236.669V35H235.005V25.464H231.445V23.8H240.237ZM244.144 35.208C243.408 35.208 242.736 35.0187 242.128 34.64C241.525 34.2613 241.043 33.7547 240.68 33.12C240.323 32.48 240.144 31.7733 240.144 31C240.144 30.4133 240.248 29.8667 240.456 29.36C240.664 28.848 240.949 28.4 241.312 28.016C241.68 27.6267 242.107 27.3227 242.592 27.104C243.077 26.8853 243.595 26.776 244.144 26.776C244.88 26.776 245.549 26.9653 246.152 27.344C246.76 27.7227 247.243 28.232 247.6 28.872C247.963 29.512 248.144 30.2213 248.144 31C248.144 31.5813 248.04 32.1253 247.832 32.632C247.624 33.1387 247.336 33.5867 246.968 33.976C246.605 34.36 246.181 34.6613 245.696 34.88C245.216 35.0987 244.699 35.208 244.144 35.208ZM244.144 33.544C244.587 33.544 244.984 33.4267 245.336 33.192C245.688 32.9573 245.965 32.648 246.168 32.264C246.376 31.8747 246.48 31.4533 246.48 31C246.48 30.536 246.373 30.1093 246.16 29.72C245.952 29.3307 245.672 29.0213 245.32 28.792C244.968 28.5573 244.576 28.44 244.144 28.44C243.707 28.44 243.309 28.5573 242.952 28.792C242.6 29.0267 242.32 29.3387 242.112 29.728C241.909 30.1173 241.808 30.5413 241.808 31C241.808 31.4747 241.915 31.904 242.128 32.288C242.341 32.672 242.624 32.9787 242.976 33.208C243.333 33.432 243.723 33.544 244.144 33.544ZM252.941 35.208C252.205 35.208 251.533 35.0187 250.925 34.64C250.322 34.2613 249.84 33.7547 249.477 33.12C249.12 32.48 248.941 31.7733 248.941 31C248.941 30.4133 249.045 29.8667 249.253 29.36C249.461 28.848 249.746 28.4 250.109 28.016C250.477 27.6267 250.904 27.3227 251.389 27.104C251.874 26.8853 252.392 26.776 252.941 26.776C253.677 26.776 254.346 26.9653 254.949 27.344C255.557 27.7227 256.04 28.232 256.397 28.872C256.76 29.512 256.941 30.2213 256.941 31C256.941 31.5813 256.837 32.1253 256.629 32.632C256.421 33.1387 256.133 33.5867 255.765 33.976C255.402 34.36 254.978 34.6613 254.493 34.88C254.013 35.0987 253.496 35.208 252.941 35.208ZM252.941 33.544C253.384 33.544 253.781 33.4267 254.133 33.192C254.485 32.9573 254.762 32.648 254.965 32.264C255.173 31.8747 255.277 31.4533 255.277 31C255.277 30.536 255.17 30.1093 254.957 29.72C254.749 29.3307 254.469 29.0213 254.117 28.792C253.765 28.5573 253.373 28.44 252.941 28.44C252.504 28.44 252.106 28.5573 251.749 28.792C251.397 29.0267 251.117 29.3387 250.909 29.728C250.706 30.1173 250.605 30.5413 250.605 31C250.605 31.4747 250.712 31.904 250.925 32.288C251.138 32.672 251.421 32.9787 251.773 33.208C252.13 33.432 252.52 33.544 252.941 33.544ZM258.124 35V23H259.788V35H258.124Z" fill="white"/>
<g clip-path="url(#clip0_2422_14914)">
<path d="M293.375 30L312.625 30" stroke="white" stroke-width="2" stroke-linecap="round" stroke-linejoin="round"/>
<path d="M304.75 37.875L312.625 30L304.75 22.125" stroke="white" stroke-width="2" stroke-linecap="round" stroke-linejoin="round"/>
</g>
<defs>
<clipPath id="clip0_2422_14914">
<rect width="28" height="28" fill="white" transform="matrix(4.37114e-08 -1 -1 -4.37114e-08 317 44)"/>
</clipPath>
</defs>
</svg>
