<svg width="433" height="80" viewBox="0 0 433 80" fill="none" xmlns="http://www.w3.org/2000/svg">
<rect width="433" height="60" rx="30" fill="#31C440"/>
<path d="M14.2334 35V23.8H18.0894C18.6921 23.8 19.2361 23.9493 19.7214 24.248C20.2121 24.5467 20.6014 24.9493 20.8894 25.456C21.1828 25.9627 21.3294 26.5227 21.3294 27.136C21.3294 27.76 21.1801 28.3253 20.8814 28.832C20.5881 29.3333 20.1961 29.7333 19.7054 30.032C19.2148 30.3307 18.6761 30.48 18.0894 30.48H15.8974V35H14.2334ZM15.8974 28.816H17.9214C18.2414 28.816 18.5321 28.736 18.7934 28.576C19.0601 28.416 19.2708 28.2027 19.4254 27.936C19.5854 27.6693 19.6654 27.368 19.6654 27.032C19.6654 26.696 19.5854 26.3947 19.4254 26.128C19.2708 25.856 19.0601 25.6427 18.7934 25.488C18.5321 25.328 18.2414 25.248 17.9214 25.248H15.8974V28.816ZM22.6397 35V27H24.3037V27.848C24.581 27.5173 24.9224 27.256 25.3277 27.064C25.733 26.872 26.1704 26.776 26.6397 26.776C26.9384 26.776 27.2344 26.816 27.5277 26.896L26.8637 28.576C26.6557 28.496 26.4477 28.456 26.2397 28.456C25.8877 28.456 25.565 28.544 25.2717 28.72C24.9784 28.8907 24.7437 29.1227 24.5677 29.416C24.3917 29.7093 24.3037 30.0347 24.3037 30.392V35H22.6397ZM31.5972 35.208C30.8612 35.208 30.1892 35.0187 29.5812 34.64C28.9785 34.2613 28.4959 33.7547 28.1332 33.12C27.7759 32.48 27.5972 31.7733 27.5972 31C27.5972 30.4133 27.7012 29.8667 27.9092 29.36C28.1172 28.848 28.4025 28.4 28.7652 28.016C29.1332 27.6267 29.5599 27.3227 30.0452 27.104C30.5305 26.8853 31.0479 26.776 31.5972 26.776C32.3332 26.776 33.0025 26.9653 33.6052 27.344C34.2132 27.7227 34.6959 28.232 35.0532 28.872C35.4159 29.512 35.5972 30.2213 35.5972 31C35.5972 31.5813 35.4932 32.1253 35.2852 32.632C35.0772 33.1387 34.7892 33.5867 34.4212 33.976C34.0585 34.36 33.6345 34.6613 33.1492 34.88C32.6692 35.0987 32.1519 35.208 31.5972 35.208ZM31.5972 33.544C32.0399 33.544 32.4372 33.4267 32.7892 33.192C33.1412 32.9573 33.4185 32.648 33.6212 32.264C33.8292 31.8747 33.9332 31.4533 33.9332 31C33.9332 30.536 33.8265 30.1093 33.6132 29.72C33.4052 29.3307 33.1252 29.0213 32.7732 28.792C32.4212 28.5573 32.0292 28.44 31.5972 28.44C31.1599 28.44 30.7625 28.5573 30.4052 28.792C30.0532 29.0267 29.7732 29.3387 29.5652 29.728C29.3625 30.1173 29.2612 30.5413 29.2612 31C29.2612 31.4747 29.3679 31.904 29.5812 32.288C29.7945 32.672 30.0772 32.9787 30.4292 33.208C30.7865 33.432 31.1759 33.544 31.5972 33.544ZM40.9403 26.776C41.719 26.776 42.4256 26.9653 43.0603 27.344C43.7003 27.7227 44.2096 28.232 44.5883 28.872C44.967 29.5067 45.1563 30.2133 45.1563 30.992C45.1563 31.5733 45.047 32.12 44.8283 32.632C44.6096 33.1387 44.3056 33.5867 43.9163 33.976C43.5323 34.36 43.0843 34.6613 42.5723 34.88C42.0656 35.0987 41.5216 35.208 40.9403 35.208C40.3803 35.208 39.8896 35.08 39.4683 34.824C39.0523 34.5627 38.711 34.2293 38.4443 33.824V35H36.7803V23H38.4443V28.16C38.711 27.7493 39.0523 27.416 39.4683 27.16C39.8896 26.904 40.3803 26.776 40.9403 26.776ZM40.9243 33.592C41.3883 33.592 41.8123 33.4747 42.1963 33.24C42.5803 33.0053 42.8843 32.6907 43.1083 32.296C43.3376 31.9013 43.4523 31.4667 43.4523 30.992C43.4523 30.5067 43.3376 30.0667 43.1083 29.672C42.879 29.2773 42.5723 28.9653 42.1883 28.736C41.8043 28.5013 41.383 28.384 40.9243 28.384C40.4603 28.384 40.0523 28.5013 39.7003 28.736C39.3483 28.9707 39.0736 29.2853 38.8763 29.68C38.679 30.0747 38.5803 30.512 38.5803 30.992C38.5803 31.472 38.679 31.9093 38.8763 32.304C39.0736 32.6987 39.3483 33.0133 39.7003 33.248C40.0523 33.4773 40.4603 33.592 40.9243 33.592ZM52.6606 27H54.3246V35H52.6526L52.5886 33.84C52.3539 34.2507 52.0366 34.5813 51.6366 34.832C51.2366 35.0827 50.7646 35.208 50.2206 35.208C49.6339 35.208 49.0819 35.0987 48.5646 34.88C48.0472 34.656 47.5912 34.3467 47.1966 33.952C46.8072 33.5573 46.5032 33.104 46.2846 32.592C46.0659 32.0747 45.9566 31.52 45.9566 30.928C45.9566 30.3573 46.0632 29.8213 46.2766 29.32C46.4899 28.8133 46.7859 28.3707 47.1646 27.992C47.5432 27.6133 47.9806 27.3173 48.4766 27.104C48.9779 26.8853 49.5139 26.776 50.0846 26.776C50.6659 26.776 51.1779 26.9093 51.6206 27.176C52.0686 27.4373 52.4392 27.7733 52.7326 28.184L52.6606 27ZM50.1806 33.6C50.6499 33.6 51.0606 33.4853 51.4126 33.256C51.7646 33.0213 52.0366 32.7067 52.2286 32.312C52.4259 31.9173 52.5246 31.48 52.5246 31C52.5246 30.5147 52.4259 30.0747 52.2286 29.68C52.0312 29.2853 51.7566 28.9733 51.4046 28.744C51.0579 28.5093 50.6499 28.392 50.1806 28.392C49.7166 28.392 49.2926 28.5093 48.9086 28.744C48.5246 28.9787 48.2206 29.2933 47.9966 29.688C47.7726 30.0827 47.6606 30.52 47.6606 31C47.6606 31.4853 47.7752 31.9253 48.0046 32.32C48.2392 32.7093 48.5459 33.0213 48.9246 33.256C49.3086 33.4853 49.7272 33.6 50.1806 33.6ZM55.9209 35V27H57.5849V27.848C57.8623 27.5173 58.2036 27.256 58.6089 27.064C59.0143 26.872 59.4516 26.776 59.9209 26.776C60.2196 26.776 60.5156 26.816 60.8089 26.896L60.1449 28.576C59.9369 28.496 59.7289 28.456 59.5209 28.456C59.1689 28.456 58.8463 28.544 58.5529 28.72C58.2596 28.8907 58.0249 29.1227 57.8489 29.416C57.6729 29.7093 57.5849 30.0347 57.5849 30.392V35H55.9209ZM65.7803 35V23.8H67.5803L72.7243 31.992V23.8H74.3883V35H72.5883L67.4443 26.808V35H65.7803ZM75.9916 32V27H77.6556V31.592C77.6556 31.9493 77.7436 32.2747 77.9196 32.568C78.0956 32.8613 78.3302 33.096 78.6236 33.272C78.9169 33.4427 79.2396 33.528 79.5916 33.528C79.9489 33.528 80.2716 33.4427 80.5596 33.272C80.8529 33.096 81.0849 32.8613 81.2556 32.568C81.4316 32.2747 81.5196 31.9493 81.5196 31.592V27H83.1836L83.1916 35H81.5276L81.5196 34.136C81.2476 34.4667 80.9089 34.728 80.5036 34.92C80.0982 35.112 79.6636 35.208 79.1996 35.208C78.6076 35.208 78.0689 35.064 77.5836 34.776C77.0982 34.488 76.7116 34.1013 76.4236 33.616C76.1356 33.1307 75.9916 32.592 75.9916 32ZM88.2066 35.208C87.4706 35.208 86.7986 35.0187 86.1906 34.64C85.5879 34.2613 85.1052 33.7547 84.7426 33.12C84.3852 32.48 84.2066 31.7733 84.2066 31C84.2066 30.4133 84.3106 29.8667 84.5186 29.36C84.7266 28.848 85.0119 28.4 85.3746 28.016C85.7426 27.6267 86.1692 27.3227 86.6546 27.104C87.1399 26.8853 87.6572 26.776 88.2066 26.776C88.8199 26.776 89.3826 26.904 89.8946 27.16C90.4066 27.4107 90.8439 27.76 91.2066 28.208C91.5692 28.6507 91.8359 29.1627 92.0066 29.744C92.1772 30.32 92.2279 30.9333 92.1586 31.584H85.9906C86.0599 31.952 86.1932 32.2853 86.3906 32.584C86.5932 32.8773 86.8492 33.1093 87.1586 33.28C87.4732 33.4507 87.8226 33.5387 88.2066 33.544C88.6119 33.544 88.9799 33.4427 89.3106 33.24C89.6466 33.0373 89.9212 32.7573 90.1346 32.4L91.8226 32.792C91.5026 33.5013 91.0199 34.0827 90.3746 34.536C89.7292 34.984 89.0066 35.208 88.2066 35.208ZM85.9346 30.312H90.4786C90.4252 29.928 90.2892 29.5813 90.0706 29.272C89.8572 28.9573 89.5879 28.7093 89.2626 28.528C88.9426 28.3413 88.5906 28.248 88.2066 28.248C87.8279 28.248 87.4759 28.3387 87.1506 28.52C86.8306 28.7013 86.5639 28.9493 86.3506 29.264C86.1426 29.5733 86.0039 29.9227 85.9346 30.312ZM95.9147 35.152C95.4934 35.1253 95.0827 35.04 94.6827 34.896C94.2827 34.752 93.9307 34.5573 93.6267 34.312C93.328 34.0613 93.104 33.768 92.9547 33.432L94.3707 32.824C94.44 32.968 94.56 33.1093 94.7307 33.248C94.9067 33.3867 95.112 33.5013 95.3467 33.592C95.5814 33.6773 95.8267 33.72 96.0827 33.72C96.3334 33.72 96.5654 33.6853 96.7787 33.616C96.9974 33.5413 97.176 33.4293 97.3147 33.28C97.4534 33.1307 97.5227 32.952 97.5227 32.744C97.5227 32.5093 97.4427 32.328 97.2827 32.2C97.128 32.0667 96.9334 31.9653 96.6987 31.896C96.464 31.8267 96.2294 31.76 95.9947 31.696C95.472 31.5787 94.992 31.4187 94.5547 31.216C94.1227 31.008 93.7787 30.744 93.5227 30.424C93.2667 30.0987 93.1387 29.7013 93.1387 29.232C93.1387 28.72 93.2774 28.2773 93.5547 27.904C93.832 27.5253 94.1947 27.2347 94.6427 27.032C95.096 26.8293 95.5787 26.728 96.0907 26.728C96.7307 26.728 97.3174 26.864 97.8507 27.136C98.384 27.408 98.792 27.7813 99.0747 28.256L97.7547 29.04C97.6747 28.88 97.5547 28.736 97.3947 28.608C97.2347 28.48 97.0534 28.3787 96.8507 28.304C96.648 28.224 96.4374 28.1787 96.2187 28.168C95.9467 28.1573 95.6934 28.1893 95.4587 28.264C95.2294 28.3333 95.0454 28.4453 94.9067 28.6C94.768 28.7547 94.6987 28.952 94.6987 29.192C94.6987 29.4267 94.7814 29.6027 94.9467 29.72C95.112 29.832 95.32 29.9227 95.5707 29.992C95.8267 30.0613 96.088 30.1387 96.3547 30.224C96.8294 30.3733 97.2747 30.5573 97.6907 30.776C98.1067 30.9893 98.4427 31.2533 98.6987 31.568C98.9547 31.8827 99.0774 32.2667 99.0667 32.72C99.0667 33.2213 98.9147 33.6613 98.6107 34.04C98.312 34.4187 97.9227 34.7067 97.4427 34.904C96.9627 35.1013 96.4534 35.184 95.9147 35.152ZM104.661 28.664H102.981L102.973 35H101.309L101.317 28.664H100.045V27H101.317L101.309 24.488H102.973L102.981 27H104.661V28.664ZM106.093 35V27H107.757V27.848C108.034 27.5173 108.375 27.256 108.781 27.064C109.186 26.872 109.623 26.776 110.093 26.776C110.391 26.776 110.687 26.816 110.981 26.896L110.317 28.576C110.109 28.496 109.901 28.456 109.693 28.456C109.341 28.456 109.018 28.544 108.725 28.72C108.431 28.8907 108.197 29.1227 108.021 29.416C107.845 29.7093 107.757 30.0347 107.757 30.392V35H106.093ZM117.754 27H119.418V35H117.746L117.682 33.84C117.448 34.2507 117.13 34.5813 116.73 34.832C116.33 35.0827 115.858 35.208 115.314 35.208C114.728 35.208 114.176 35.0987 113.658 34.88C113.141 34.656 112.685 34.3467 112.29 33.952C111.901 33.5573 111.597 33.104 111.378 32.592C111.16 32.0747 111.05 31.52 111.05 30.928C111.05 30.3573 111.157 29.8213 111.37 29.32C111.584 28.8133 111.88 28.3707 112.258 27.992C112.637 27.6133 113.074 27.3173 113.57 27.104C114.072 26.8853 114.608 26.776 115.178 26.776C115.76 26.776 116.272 26.9093 116.714 27.176C117.162 27.4373 117.533 27.7733 117.826 28.184L117.754 27ZM115.274 33.6C115.744 33.6 116.154 33.4853 116.506 33.256C116.858 33.0213 117.13 32.7067 117.322 32.312C117.52 31.9173 117.618 31.48 117.618 31C117.618 30.5147 117.52 30.0747 117.322 29.68C117.125 29.2853 116.85 28.9733 116.498 28.744C116.152 28.5093 115.744 28.392 115.274 28.392C114.81 28.392 114.386 28.5093 114.002 28.744C113.618 28.9787 113.314 29.2933 113.09 29.688C112.866 30.0827 112.754 30.52 112.754 31C112.754 31.4853 112.869 31.9253 113.098 32.32C113.333 32.7093 113.64 33.0213 114.018 33.256C114.402 33.4853 114.821 33.6 115.274 33.6ZM130.042 35.208C129.285 35.208 128.573 35.0587 127.906 34.76C127.24 34.456 126.653 34.04 126.146 33.512C125.645 32.9787 125.25 32.36 124.962 31.656C124.68 30.952 124.538 30.2 124.538 29.4C124.538 28.6 124.68 27.848 124.962 27.144C125.25 26.44 125.645 25.824 126.146 25.296C126.653 24.7627 127.24 24.3467 127.906 24.048C128.573 23.744 129.285 23.592 130.042 23.592C130.949 23.592 131.784 23.8027 132.546 24.224C133.309 24.6453 133.941 25.2053 134.442 25.904L132.962 26.696C132.616 26.2587 132.186 25.9093 131.674 25.648C131.162 25.3867 130.618 25.256 130.042 25.256C129.509 25.256 129.01 25.3653 128.546 25.584C128.082 25.8027 127.674 26.1013 127.322 26.48C126.97 26.8587 126.696 27.2987 126.498 27.8C126.301 28.3013 126.202 28.8347 126.202 29.4C126.202 29.9707 126.301 30.5067 126.498 31.008C126.696 31.504 126.97 31.944 127.322 32.328C127.68 32.7067 128.09 33.0053 128.554 33.224C129.018 33.4373 129.514 33.544 130.042 33.544C130.629 33.544 131.176 33.4133 131.682 33.152C132.194 32.8853 132.621 32.5333 132.962 32.096L134.442 32.904C133.941 33.6027 133.309 34.1627 132.546 34.584C131.784 35 130.949 35.208 130.042 35.208ZM141.801 27H143.465V35H141.793L141.729 33.84C141.495 34.2507 141.177 34.5813 140.777 34.832C140.377 35.0827 139.905 35.208 139.361 35.208C138.775 35.208 138.223 35.0987 137.705 34.88C137.188 34.656 136.732 34.3467 136.337 33.952C135.948 33.5573 135.644 33.104 135.425 32.592C135.207 32.0747 135.097 31.52 135.097 30.928C135.097 30.3573 135.204 29.8213 135.417 29.32C135.631 28.8133 135.927 28.3707 136.305 27.992C136.684 27.6133 137.121 27.3173 137.617 27.104C138.119 26.8853 138.655 26.776 139.225 26.776C139.807 26.776 140.319 26.9093 140.761 27.176C141.209 27.4373 141.58 27.7733 141.873 28.184L141.801 27ZM139.321 33.6C139.791 33.6 140.201 33.4853 140.553 33.256C140.905 33.0213 141.177 32.7067 141.369 32.312C141.567 31.9173 141.665 31.48 141.665 31C141.665 30.5147 141.567 30.0747 141.369 29.68C141.172 29.2853 140.897 28.9733 140.545 28.744C140.199 28.5093 139.791 28.392 139.321 28.392C138.857 28.392 138.433 28.5093 138.049 28.744C137.665 28.9787 137.361 29.2933 137.137 29.688C136.913 30.0827 136.801 30.52 136.801 31C136.801 31.4853 136.916 31.9253 137.145 32.32C137.38 32.7093 137.687 33.0213 138.065 33.256C138.449 33.4853 138.868 33.6 139.321 33.6ZM145.124 35V23H146.788V35H145.124ZM153.817 32.728L155.305 33.536C154.942 34.0427 154.481 34.448 153.921 34.752C153.366 35.056 152.763 35.208 152.113 35.208C151.377 35.208 150.705 35.0187 150.097 34.64C149.494 34.2613 149.011 33.7547 148.649 33.12C148.291 32.48 148.113 31.7733 148.113 31C148.113 30.4133 148.217 29.8667 148.425 29.36C148.633 28.848 148.918 28.4 149.281 28.016C149.649 27.6267 150.075 27.3227 150.561 27.104C151.046 26.8853 151.563 26.776 152.113 26.776C152.763 26.776 153.366 26.928 153.921 27.232C154.481 27.536 154.942 27.944 155.305 28.456L153.817 29.264C153.593 28.9973 153.331 28.7947 153.033 28.656C152.734 28.512 152.427 28.44 152.113 28.44C151.675 28.44 151.278 28.56 150.921 28.8C150.569 29.0347 150.289 29.3467 150.081 29.736C149.878 30.12 149.777 30.5413 149.777 31C149.777 31.4533 149.881 31.8747 150.089 32.264C150.297 32.648 150.577 32.9573 150.929 33.192C151.286 33.4267 151.681 33.544 152.113 33.544C152.443 33.544 152.758 33.4693 153.057 33.32C153.355 33.1707 153.609 32.9733 153.817 32.728ZM156.288 32V27H157.952V31.592C157.952 31.9493 158.04 32.2747 158.216 32.568C158.392 32.8613 158.627 33.096 158.92 33.272C159.214 33.4427 159.536 33.528 159.888 33.528C160.246 33.528 160.568 33.4427 160.856 33.272C161.15 33.096 161.382 32.8613 161.552 32.568C161.728 32.2747 161.816 31.9493 161.816 31.592V27H163.48L163.488 35H161.824L161.816 34.136C161.544 34.4667 161.206 34.728 160.8 34.92C160.395 35.112 159.96 35.208 159.496 35.208C158.904 35.208 158.366 35.064 157.88 34.776C157.395 34.488 157.008 34.1013 156.72 33.616C156.432 33.1307 156.288 32.592 156.288 32ZM165.155 35V23H166.819V35H165.155ZM174.848 27H176.512V35H174.84L174.776 33.84C174.541 34.2507 174.224 34.5813 173.824 34.832C173.424 35.0827 172.952 35.208 172.408 35.208C171.821 35.208 171.269 35.0987 170.752 34.88C170.235 34.656 169.779 34.3467 169.384 33.952C168.995 33.5573 168.691 33.104 168.472 32.592C168.253 32.0747 168.144 31.52 168.144 30.928C168.144 30.3573 168.251 29.8213 168.464 29.32C168.677 28.8133 168.973 28.3707 169.352 27.992C169.731 27.6133 170.168 27.3173 170.664 27.104C171.165 26.8853 171.701 26.776 172.272 26.776C172.853 26.776 173.365 26.9093 173.808 27.176C174.256 27.4373 174.627 27.7733 174.92 28.184L174.848 27ZM172.368 33.6C172.837 33.6 173.248 33.4853 173.6 33.256C173.952 33.0213 174.224 32.7067 174.416 32.312C174.613 31.9173 174.712 31.48 174.712 31C174.712 30.5147 174.613 30.0747 174.416 29.68C174.219 29.2853 173.944 28.9733 173.592 28.744C173.245 28.5093 172.837 28.392 172.368 28.392C171.904 28.392 171.48 28.5093 171.096 28.744C170.712 28.9787 170.408 29.2933 170.184 29.688C169.96 30.0827 169.848 30.52 169.848 31C169.848 31.4853 169.963 31.9253 170.192 32.32C170.427 32.7093 170.733 33.0213 171.112 33.256C171.496 33.4853 171.915 33.6 172.368 33.6ZM184.184 23H185.848V35H184.184V33.824C183.923 34.24 183.582 34.576 183.16 34.832C182.739 35.0827 182.246 35.208 181.68 35.208C181.099 35.208 180.555 35.0987 180.048 34.88C179.542 34.6613 179.094 34.36 178.704 33.976C178.32 33.5867 178.019 33.1387 177.8 32.632C177.582 32.1253 177.472 31.5813 177.472 31C177.472 30.4187 177.582 29.8747 177.8 29.368C178.019 28.856 178.32 28.408 178.704 28.024C179.094 27.6347 179.542 27.3307 180.048 27.112C180.555 26.8933 181.099 26.784 181.68 26.784C182.246 26.784 182.739 26.912 183.16 27.168C183.582 27.4187 183.923 27.7493 184.184 28.16V23ZM181.696 33.6C182.166 33.6 182.576 33.4853 182.928 33.256C183.28 33.0213 183.552 32.7067 183.744 32.312C183.942 31.9173 184.04 31.48 184.04 31C184.04 30.5147 183.942 30.0747 183.744 29.68C183.547 29.2853 183.272 28.9733 182.92 28.744C182.574 28.5093 182.166 28.392 181.696 28.392C181.232 28.392 180.808 28.5093 180.424 28.744C180.046 28.9787 179.742 29.2933 179.512 29.688C179.288 30.0827 179.176 30.52 179.176 31C179.176 31.4853 179.291 31.9253 179.52 32.32C179.755 32.7093 180.062 33.0213 180.44 33.256C180.824 33.4853 181.243 33.6 181.696 33.6ZM191.175 35.208C190.439 35.208 189.767 35.0187 189.159 34.64C188.557 34.2613 188.074 33.7547 187.711 33.12C187.354 32.48 187.175 31.7733 187.175 31C187.175 30.4133 187.279 29.8667 187.487 29.36C187.695 28.848 187.981 28.4 188.343 28.016C188.711 27.6267 189.138 27.3227 189.623 27.104C190.109 26.8853 190.626 26.776 191.175 26.776C191.911 26.776 192.581 26.9653 193.183 27.344C193.791 27.7227 194.274 28.232 194.631 28.872C194.994 29.512 195.175 30.2213 195.175 31C195.175 31.5813 195.071 32.1253 194.863 32.632C194.655 33.1387 194.367 33.5867 193.999 33.976C193.637 34.36 193.213 34.6613 192.727 34.88C192.247 35.0987 191.73 35.208 191.175 35.208ZM191.175 33.544C191.618 33.544 192.015 33.4267 192.367 33.192C192.719 32.9573 192.997 32.648 193.199 32.264C193.407 31.8747 193.511 31.4533 193.511 31C193.511 30.536 193.405 30.1093 193.191 29.72C192.983 29.3307 192.703 29.0213 192.351 28.792C191.999 28.5573 191.607 28.44 191.175 28.44C190.738 28.44 190.341 28.5573 189.983 28.792C189.631 29.0267 189.351 29.3387 189.143 29.728C188.941 30.1173 188.839 30.5413 188.839 31C188.839 31.4747 188.946 31.904 189.159 32.288C189.373 32.672 189.655 32.9787 190.007 33.208C190.365 33.432 190.754 33.544 191.175 33.544ZM196.468 35V27H198.132V27.848C198.409 27.5173 198.75 27.256 199.156 27.064C199.561 26.872 199.998 26.776 200.468 26.776C200.766 26.776 201.062 26.816 201.356 26.896L200.692 28.576C200.484 28.496 200.276 28.456 200.068 28.456C199.716 28.456 199.393 28.544 199.1 28.72C198.806 28.8907 198.572 29.1227 198.396 29.416C198.22 29.7093 198.132 30.0347 198.132 30.392V35H196.468ZM208.129 27H209.793V35H208.121L208.057 33.84C207.823 34.2507 207.505 34.5813 207.105 34.832C206.705 35.0827 206.233 35.208 205.689 35.208C205.103 35.208 204.551 35.0987 204.033 34.88C203.516 34.656 203.06 34.3467 202.665 33.952C202.276 33.5573 201.972 33.104 201.753 32.592C201.535 32.0747 201.425 31.52 201.425 30.928C201.425 30.3573 201.532 29.8213 201.745 29.32C201.959 28.8133 202.255 28.3707 202.633 27.992C203.012 27.6133 203.449 27.3173 203.945 27.104C204.447 26.8853 204.983 26.776 205.553 26.776C206.135 26.776 206.647 26.9093 207.089 27.176C207.537 27.4373 207.908 27.7733 208.201 28.184L208.129 27ZM205.649 33.6C206.119 33.6 206.529 33.4853 206.881 33.256C207.233 33.0213 207.505 32.7067 207.697 32.312C207.895 31.9173 207.993 31.48 207.993 31C207.993 30.5147 207.895 30.0747 207.697 29.68C207.5 29.2853 207.225 28.9733 206.873 28.744C206.527 28.5093 206.119 28.392 205.649 28.392C205.185 28.392 204.761 28.5093 204.377 28.744C203.993 28.9787 203.689 29.2933 203.465 29.688C203.241 30.0827 203.129 30.52 203.129 31C203.129 31.4853 203.244 31.9253 203.473 32.32C203.708 32.7093 204.015 33.0213 204.393 33.256C204.777 33.4853 205.196 33.6 205.649 33.6ZM221.465 23H223.129V35H221.465V33.824C221.204 34.24 220.863 34.576 220.441 34.832C220.02 35.0827 219.527 35.208 218.961 35.208C218.38 35.208 217.836 35.0987 217.329 34.88C216.823 34.6613 216.375 34.36 215.985 33.976C215.601 33.5867 215.3 33.1387 215.081 32.632C214.863 32.1253 214.753 31.5813 214.753 31C214.753 30.4187 214.863 29.8747 215.081 29.368C215.3 28.856 215.601 28.408 215.985 28.024C216.375 27.6347 216.823 27.3307 217.329 27.112C217.836 26.8933 218.38 26.784 218.961 26.784C219.527 26.784 220.02 26.912 220.441 27.168C220.863 27.4187 221.204 27.7493 221.465 28.16V23ZM218.977 33.6C219.447 33.6 219.857 33.4853 220.209 33.256C220.561 33.0213 220.833 32.7067 221.025 32.312C221.223 31.9173 221.321 31.48 221.321 31C221.321 30.5147 221.223 30.0747 221.025 29.68C220.828 29.2853 220.553 28.9733 220.201 28.744C219.855 28.5093 219.447 28.392 218.977 28.392C218.513 28.392 218.089 28.5093 217.705 28.744C217.327 28.9787 217.023 29.2933 216.793 29.688C216.569 30.0827 216.457 30.52 216.457 31C216.457 31.4853 216.572 31.9253 216.801 32.32C217.036 32.7093 217.343 33.0213 217.721 33.256C218.105 33.4853 218.524 33.6 218.977 33.6ZM228.457 35.208C227.721 35.208 227.049 35.0187 226.441 34.64C225.838 34.2613 225.355 33.7547 224.993 33.12C224.635 32.48 224.457 31.7733 224.457 31C224.457 30.4133 224.561 29.8667 224.769 29.36C224.977 28.848 225.262 28.4 225.625 28.016C225.993 27.6267 226.419 27.3227 226.905 27.104C227.39 26.8853 227.907 26.776 228.457 26.776C229.07 26.776 229.633 26.904 230.145 27.16C230.657 27.4107 231.094 27.76 231.457 28.208C231.819 28.6507 232.086 29.1627 232.257 29.744C232.427 30.32 232.478 30.9333 232.409 31.584H226.241C226.31 31.952 226.443 32.2853 226.641 32.584C226.843 32.8773 227.099 33.1093 227.409 33.28C227.723 33.4507 228.073 33.5387 228.457 33.544C228.862 33.544 229.23 33.4427 229.561 33.24C229.897 33.0373 230.171 32.7573 230.385 32.4L232.073 32.792C231.753 33.5013 231.27 34.0827 230.625 34.536C229.979 34.984 229.257 35.208 228.457 35.208ZM226.185 30.312H230.729C230.675 29.928 230.539 29.5813 230.321 29.272C230.107 28.9573 229.838 28.7093 229.513 28.528C229.193 28.3413 228.841 28.248 228.457 28.248C228.078 28.248 227.726 28.3387 227.401 28.52C227.081 28.7013 226.814 28.9493 226.601 29.264C226.393 29.5733 226.254 29.9227 226.185 30.312ZM237.958 35V23.8H239.622V35H237.958ZM248.98 29.984V35H247.316V30.392C247.316 30.0347 247.228 29.7093 247.052 29.416C246.882 29.1227 246.65 28.8907 246.356 28.72C246.068 28.544 245.743 28.456 245.38 28.456C245.028 28.456 244.706 28.544 244.412 28.72C244.119 28.8907 243.884 29.1227 243.708 29.416C243.532 29.7093 243.444 30.0347 243.444 30.392V35H241.78V27H243.444V27.848C243.722 27.5173 244.063 27.256 244.468 27.064C244.874 26.872 245.311 26.776 245.78 26.776C246.372 26.776 246.911 26.92 247.396 27.208C247.882 27.496 248.266 27.8827 248.548 28.368C248.836 28.8533 248.98 29.392 248.98 29.984ZM254.801 28.664H253.121L253.113 35H251.449L251.457 28.664H250.185V27H251.457L251.449 24.488H253.113L253.121 27H254.801V28.664ZM259.566 35.208C258.83 35.208 258.158 35.0187 257.55 34.64C256.947 34.2613 256.465 33.7547 256.102 33.12C255.745 32.48 255.566 31.7733 255.566 31C255.566 30.4133 255.67 29.8667 255.878 29.36C256.086 28.848 256.371 28.4 256.734 28.016C257.102 27.6267 257.529 27.3227 258.014 27.104C258.499 26.8853 259.017 26.776 259.566 26.776C260.179 26.776 260.742 26.904 261.254 27.16C261.766 27.4107 262.203 27.76 262.566 28.208C262.929 28.6507 263.195 29.1627 263.366 29.744C263.537 30.32 263.587 30.9333 263.518 31.584H257.35C257.419 31.952 257.553 32.2853 257.75 32.584C257.953 32.8773 258.209 33.1093 258.518 33.28C258.833 33.4507 259.182 33.5387 259.566 33.544C259.971 33.544 260.339 33.4427 260.67 33.24C261.006 33.0373 261.281 32.7573 261.494 32.4L263.182 32.792C262.862 33.5013 262.379 34.0827 261.734 34.536C261.089 34.984 260.366 35.208 259.566 35.208ZM257.294 30.312H261.838C261.785 29.928 261.649 29.5813 261.43 29.272C261.217 28.9573 260.947 28.7093 260.622 28.528C260.302 28.3413 259.95 28.248 259.566 28.248C259.187 28.248 258.835 28.3387 258.51 28.52C258.19 28.7013 257.923 28.9493 257.71 29.264C257.502 29.5733 257.363 29.9227 257.294 30.312ZM264.843 35V27H266.507V27.848C266.784 27.5173 267.125 27.256 267.531 27.064C267.936 26.872 268.373 26.776 268.843 26.776C269.141 26.776 269.437 26.816 269.731 26.896L269.067 28.576C268.859 28.496 268.651 28.456 268.443 28.456C268.091 28.456 267.768 28.544 267.475 28.72C267.181 28.8907 266.947 29.1227 266.771 29.416C266.595 29.7093 266.507 30.0347 266.507 30.392V35H264.843ZM273.8 35.208C273.064 35.208 272.392 35.0187 271.784 34.64C271.182 34.2613 270.699 33.7547 270.336 33.12C269.979 32.48 269.8 31.7733 269.8 31C269.8 30.4133 269.904 29.8667 270.112 29.36C270.32 28.848 270.606 28.4 270.968 28.016C271.336 27.6267 271.763 27.3227 272.248 27.104C272.734 26.8853 273.251 26.776 273.8 26.776C274.414 26.776 274.976 26.904 275.488 27.16C276 27.4107 276.438 27.76 276.8 28.208C277.163 28.6507 277.43 29.1627 277.6 29.744C277.771 30.32 277.822 30.9333 277.752 31.584H271.584C271.654 31.952 271.787 32.2853 271.984 32.584C272.187 32.8773 272.443 33.1093 272.752 33.28C273.067 33.4507 273.416 33.5387 273.8 33.544C274.206 33.544 274.574 33.4427 274.904 33.24C275.24 33.0373 275.515 32.7573 275.728 32.4L277.416 32.792C277.096 33.5013 276.614 34.0827 275.968 34.536C275.323 34.984 274.6 35.208 273.8 35.208ZM271.528 30.312H276.072C276.019 29.928 275.883 29.5813 275.664 29.272C275.451 28.9573 275.182 28.7093 274.856 28.528C274.536 28.3413 274.184 28.248 273.8 28.248C273.422 28.248 273.07 28.3387 272.744 28.52C272.424 28.7013 272.158 28.9493 271.944 29.264C271.736 29.5733 271.598 29.9227 271.528 30.312ZM273.36 26.12L274 23.816H275.664L274.48 26.12H273.36ZM281.508 35.152C281.087 35.1253 280.676 35.04 280.276 34.896C279.876 34.752 279.524 34.5573 279.22 34.312C278.922 34.0613 278.698 33.768 278.548 33.432L279.964 32.824C280.034 32.968 280.154 33.1093 280.324 33.248C280.5 33.3867 280.706 33.5013 280.94 33.592C281.175 33.6773 281.42 33.72 281.676 33.72C281.927 33.72 282.159 33.6853 282.372 33.616C282.591 33.5413 282.77 33.4293 282.908 33.28C283.047 33.1307 283.116 32.952 283.116 32.744C283.116 32.5093 283.036 32.328 282.876 32.2C282.722 32.0667 282.527 31.9653 282.292 31.896C282.058 31.8267 281.823 31.76 281.588 31.696C281.066 31.5787 280.586 31.4187 280.148 31.216C279.716 31.008 279.372 30.744 279.116 30.424C278.86 30.0987 278.732 29.7013 278.732 29.232C278.732 28.72 278.871 28.2773 279.148 27.904C279.426 27.5253 279.788 27.2347 280.236 27.032C280.69 26.8293 281.172 26.728 281.684 26.728C282.324 26.728 282.911 26.864 283.444 27.136C283.978 27.408 284.386 27.7813 284.668 28.256L283.348 29.04C283.268 28.88 283.148 28.736 282.988 28.608C282.828 28.48 282.647 28.3787 282.444 28.304C282.242 28.224 282.031 28.1787 281.812 28.168C281.54 28.1573 281.287 28.1893 281.052 28.264C280.823 28.3333 280.639 28.4453 280.5 28.6C280.362 28.7547 280.292 28.952 280.292 29.192C280.292 29.4267 280.375 29.6027 280.54 29.72C280.706 29.832 280.914 29.9227 281.164 29.992C281.42 30.0613 281.682 30.1387 281.948 30.224C282.423 30.3733 282.868 30.5573 283.284 30.776C283.7 30.9893 284.036 31.2533 284.292 31.568C284.548 31.8827 284.671 32.2667 284.66 32.72C284.66 33.2213 284.508 33.6613 284.204 34.04C283.906 34.4187 283.516 34.7067 283.036 34.904C282.556 35.1013 282.047 35.184 281.508 35.152ZM295.058 35.208C294.301 35.208 293.589 35.0587 292.922 34.76C292.255 34.456 291.669 34.04 291.162 33.512C290.661 32.9787 290.266 32.36 289.978 31.656C289.695 30.952 289.554 30.2 289.554 29.4C289.554 28.6 289.695 27.848 289.978 27.144C290.266 26.44 290.661 25.824 291.162 25.296C291.669 24.7627 292.255 24.3467 292.922 24.048C293.589 23.744 294.301 23.592 295.058 23.592C295.965 23.592 296.799 23.8027 297.562 24.224C298.325 24.6453 298.957 25.2053 299.458 25.904L297.978 26.696C297.631 26.2587 297.202 25.9093 296.69 25.648C296.178 25.3867 295.634 25.256 295.058 25.256C294.525 25.256 294.026 25.3653 293.562 25.584C293.098 25.8027 292.69 26.1013 292.338 26.48C291.986 26.8587 291.711 27.2987 291.514 27.8C291.317 28.3013 291.218 28.8347 291.218 29.4C291.218 29.9707 291.317 30.5067 291.514 31.008C291.711 31.504 291.986 31.944 292.338 32.328C292.695 32.7067 293.106 33.0053 293.57 33.224C294.034 33.4373 294.53 33.544 295.058 33.544C295.645 33.544 296.191 33.4133 296.698 33.152C297.21 32.8853 297.637 32.5333 297.978 32.096L299.458 32.904C298.957 33.6027 298.325 34.1627 297.562 34.584C296.799 35 295.965 35.208 295.058 35.208ZM304.113 35.208C303.377 35.208 302.705 35.0187 302.097 34.64C301.494 34.2613 301.011 33.7547 300.649 33.12C300.291 32.48 300.113 31.7733 300.113 31C300.113 30.4133 300.217 29.8667 300.425 29.36C300.633 28.848 300.918 28.4 301.281 28.016C301.649 27.6267 302.075 27.3227 302.561 27.104C303.046 26.8853 303.563 26.776 304.113 26.776C304.849 26.776 305.518 26.9653 306.121 27.344C306.729 27.7227 307.211 28.232 307.569 28.872C307.931 29.512 308.113 30.2213 308.113 31C308.113 31.5813 308.009 32.1253 307.801 32.632C307.593 33.1387 307.305 33.5867 306.937 33.976C306.574 34.36 306.15 34.6613 305.665 34.88C305.185 35.0987 304.667 35.208 304.113 35.208ZM304.113 33.544C304.555 33.544 304.953 33.4267 305.305 33.192C305.657 32.9573 305.934 32.648 306.137 32.264C306.345 31.8747 306.449 31.4533 306.449 31C306.449 30.536 306.342 30.1093 306.129 29.72C305.921 29.3307 305.641 29.0213 305.289 28.792C304.937 28.5573 304.545 28.44 304.113 28.44C303.675 28.44 303.278 28.5573 302.921 28.792C302.569 29.0267 302.289 29.3387 302.081 29.728C301.878 30.1173 301.777 30.5413 301.777 31C301.777 31.4747 301.883 31.904 302.097 32.288C302.31 32.672 302.593 32.9787 302.945 33.208C303.302 33.432 303.691 33.544 304.113 33.544ZM309.405 35V27H311.069V27.848C311.347 27.5173 311.685 27.256 312.085 27.064C312.491 26.872 312.928 26.776 313.397 26.776C313.968 26.776 314.493 26.9147 314.973 27.192C315.453 27.464 315.835 27.8267 316.117 28.28C316.4 27.8267 316.776 27.464 317.245 27.192C317.72 26.9147 318.243 26.776 318.813 26.776C319.405 26.776 319.944 26.92 320.429 27.208C320.915 27.496 321.301 27.8827 321.589 28.368C321.877 28.8533 322.021 29.392 322.021 29.984V35H320.357V30.408C320.357 30.056 320.272 29.7333 320.101 29.44C319.931 29.1467 319.701 28.9093 319.413 28.728C319.125 28.5467 318.805 28.456 318.453 28.456C318.101 28.456 317.781 28.5413 317.493 28.712C317.205 28.8827 316.976 29.1147 316.805 29.408C316.635 29.7013 316.549 30.0347 316.549 30.408V35H314.885V30.408C314.885 30.0347 314.8 29.7013 314.629 29.408C314.459 29.1147 314.227 28.8827 313.933 28.712C313.645 28.5413 313.325 28.456 312.973 28.456C312.627 28.456 312.307 28.5467 312.013 28.728C311.725 28.9093 311.496 29.1467 311.325 29.44C311.155 29.7333 311.069 30.056 311.069 30.408V35H309.405ZM325.288 39H323.624V27H325.288V28.176C325.555 27.7653 325.896 27.432 326.312 27.176C326.728 26.92 327.219 26.792 327.784 26.792C328.365 26.792 328.909 26.9013 329.416 27.12C329.928 27.3387 330.376 27.6427 330.76 28.032C331.144 28.416 331.445 28.8613 331.664 29.368C331.883 29.8747 331.992 30.4187 331.992 31C331.992 31.5813 331.883 32.128 331.664 32.64C331.445 33.152 331.144 33.6027 330.76 33.992C330.376 34.376 329.928 34.6773 329.416 34.896C328.909 35.1147 328.365 35.224 327.784 35.224C327.219 35.224 326.728 35.096 326.312 34.84C325.896 34.5787 325.555 34.2453 325.288 33.84V39ZM327.768 28.4C327.304 28.4 326.896 28.5173 326.544 28.752C326.192 28.9867 325.917 29.3013 325.72 29.696C325.523 30.0853 325.424 30.52 325.424 31C325.424 31.48 325.523 31.9173 325.72 32.312C325.917 32.7067 326.192 33.0213 326.544 33.256C326.896 33.4907 327.304 33.608 327.768 33.608C328.227 33.608 328.648 33.4933 329.032 33.264C329.416 33.0293 329.723 32.7147 329.952 32.32C330.181 31.9253 330.296 31.4853 330.296 31C330.296 30.5253 330.181 30.0907 329.952 29.696C329.728 29.3013 329.424 28.9867 329.04 28.752C328.656 28.5173 328.232 28.4 327.768 28.4ZM332.82 32V27H334.484V31.592C334.484 31.9493 334.572 32.2747 334.748 32.568C334.924 32.8613 335.158 33.096 335.452 33.272C335.745 33.4427 336.068 33.528 336.42 33.528C336.777 33.528 337.1 33.4427 337.388 33.272C337.681 33.096 337.913 32.8613 338.084 32.568C338.26 32.2747 338.348 31.9493 338.348 31.592V27H340.012L340.02 35H338.356L338.348 34.136C338.076 34.4667 337.737 34.728 337.332 34.92C336.926 35.112 336.492 35.208 336.028 35.208C335.436 35.208 334.897 35.064 334.412 34.776C333.926 34.488 333.54 34.1013 333.252 33.616C332.964 33.1307 332.82 32.592 332.82 32ZM345.035 35.208C344.299 35.208 343.627 35.0187 343.019 34.64C342.416 34.2613 341.933 33.7547 341.571 33.12C341.213 32.48 341.035 31.7733 341.035 31C341.035 30.4133 341.139 29.8667 341.347 29.36C341.555 28.848 341.84 28.4 342.203 28.016C342.571 27.6267 342.997 27.3227 343.483 27.104C343.968 26.8853 344.485 26.776 345.035 26.776C345.648 26.776 346.211 26.904 346.723 27.16C347.235 27.4107 347.672 27.76 348.035 28.208C348.397 28.6507 348.664 29.1627 348.835 29.744C349.005 30.32 349.056 30.9333 348.987 31.584H342.819C342.888 31.952 343.021 32.2853 343.219 32.584C343.421 32.8773 343.677 33.1093 343.987 33.28C344.301 33.4507 344.651 33.5387 345.035 33.544C345.44 33.544 345.808 33.4427 346.139 33.24C346.475 33.0373 346.749 32.7573 346.963 32.4L348.651 32.792C348.331 33.5013 347.848 34.0827 347.203 34.536C346.557 34.984 345.835 35.208 345.035 35.208ZM342.763 30.312H347.307C347.253 29.928 347.117 29.5813 346.899 29.272C346.685 28.9573 346.416 28.7093 346.091 28.528C345.771 28.3413 345.419 28.248 345.035 28.248C344.656 28.248 344.304 28.3387 343.979 28.52C343.659 28.7013 343.392 28.9493 343.179 29.264C342.971 29.5733 342.832 29.9227 342.763 30.312ZM352.743 35.152C352.321 35.1253 351.911 35.04 351.511 34.896C351.111 34.752 350.759 34.5573 350.455 34.312C350.156 34.0613 349.932 33.768 349.783 33.432L351.199 32.824C351.268 32.968 351.388 33.1093 351.559 33.248C351.735 33.3867 351.94 33.5013 352.175 33.592C352.409 33.6773 352.655 33.72 352.911 33.72C353.161 33.72 353.393 33.6853 353.607 33.616C353.825 33.5413 354.004 33.4293 354.143 33.28C354.281 33.1307 354.351 32.952 354.351 32.744C354.351 32.5093 354.271 32.328 354.111 32.2C353.956 32.0667 353.761 31.9653 353.527 31.896C353.292 31.8267 353.057 31.76 352.823 31.696C352.3 31.5787 351.82 31.4187 351.383 31.216C350.951 31.008 350.607 30.744 350.351 30.424C350.095 30.0987 349.967 29.7013 349.967 29.232C349.967 28.72 350.105 28.2773 350.383 27.904C350.66 27.5253 351.023 27.2347 351.471 27.032C351.924 26.8293 352.407 26.728 352.919 26.728C353.559 26.728 354.145 26.864 354.679 27.136C355.212 27.408 355.62 27.7813 355.903 28.256L354.583 29.04C354.503 28.88 354.383 28.736 354.223 28.608C354.063 28.48 353.881 28.3787 353.679 28.304C353.476 28.224 353.265 28.1787 353.047 28.168C352.775 28.1573 352.521 28.1893 352.287 28.264C352.057 28.3333 351.873 28.4453 351.735 28.6C351.596 28.7547 351.527 28.952 351.527 29.192C351.527 29.4267 351.609 29.6027 351.775 29.72C351.94 29.832 352.148 29.9227 352.399 29.992C352.655 30.0613 352.916 30.1387 353.183 30.224C353.657 30.3733 354.103 30.5573 354.519 30.776C354.935 30.9893 355.271 31.2533 355.527 31.568C355.783 31.8827 355.905 32.2667 355.895 32.72C355.895 33.2213 355.743 33.6613 355.439 34.04C355.14 34.4187 354.751 34.7067 354.271 34.904C353.791 35.1013 353.281 35.184 352.743 35.152ZM361.489 28.664H359.809L359.801 35H358.137L358.145 28.664H356.873V27H358.145L358.137 24.488H359.801L359.809 27H361.489V28.664ZM366.253 35.208C365.517 35.208 364.845 35.0187 364.237 34.64C363.635 34.2613 363.152 33.7547 362.789 33.12C362.432 32.48 362.253 31.7733 362.253 31C362.253 30.4133 362.357 29.8667 362.565 29.36C362.773 28.848 363.059 28.4 363.421 28.016C363.789 27.6267 364.216 27.3227 364.701 27.104C365.187 26.8853 365.704 26.776 366.253 26.776C366.989 26.776 367.659 26.9653 368.261 27.344C368.869 27.7227 369.352 28.232 369.709 28.872C370.072 29.512 370.253 30.2213 370.253 31C370.253 31.5813 370.149 32.1253 369.941 32.632C369.733 33.1387 369.445 33.5867 369.077 33.976C368.715 34.36 368.291 34.6613 367.805 34.88C367.325 35.0987 366.808 35.208 366.253 35.208ZM366.253 33.544C366.696 33.544 367.093 33.4267 367.445 33.192C367.797 32.9573 368.075 32.648 368.277 32.264C368.485 31.8747 368.589 31.4533 368.589 31C368.589 30.536 368.483 30.1093 368.269 29.72C368.061 29.3307 367.781 29.0213 367.429 28.792C367.077 28.5573 366.685 28.44 366.253 28.44C365.816 28.44 365.419 28.5573 365.061 28.792C364.709 29.0267 364.429 29.3387 364.221 29.728C364.019 30.1173 363.917 30.5413 363.917 31C363.917 31.4747 364.024 31.904 364.237 32.288C364.451 32.672 364.733 32.9787 365.085 33.208C365.443 33.432 365.832 33.544 366.253 33.544Z" fill="white"/>
<g clip-path="url(#clip0_267_19652)">
<path d="M388.375 30L407.625 30" stroke="white" stroke-width="2" stroke-linecap="round" stroke-linejoin="round"/>
<path d="M399.75 37.875L407.625 30L399.75 22.125" stroke="white" stroke-width="2" stroke-linecap="round" stroke-linejoin="round"/>
</g>
<defs>
<clipPath id="clip0_267_19652">
<rect width="28" height="28" fill="white" transform="matrix(4.37114e-08 -1 -1 -4.37114e-08 412 44)"/>
</clipPath>
</defs>
</svg>
