<svg width="108" height="108" viewBox="0 0 108 108" fill="none" xmlns="http://www.w3.org/2000/svg">
<rect x="2" y="2" width="104" height="104" rx="52" fill="#141414" stroke="white" stroke-width="4"/>
<path d="M62.2323 54.5292C62.214 51.4001 63.6317 49.0418 66.4947 47.3028C64.8935 45.0088 62.4709 43.747 59.2775 43.5038C56.2539 43.2652 52.9458 45.2657 51.7345 45.2657C50.4544 45.2657 47.5272 43.5864 45.2239 43.5864C40.4705 43.6598 35.4189 47.3763 35.4189 54.9376C35.4189 57.172 35.8273 59.4799 36.644 61.8566C37.736 64.9857 41.6726 72.6526 45.7791 72.5287C47.9263 72.4782 49.445 71.0054 52.2392 71.0054C54.9509 71.0054 56.3549 72.5287 58.7499 72.5287C62.893 72.4691 66.4535 65.4996 67.4904 62.3613C61.9341 59.7414 62.2323 54.6898 62.2323 54.5292ZM57.4101 40.5353C59.7363 37.7732 59.5253 35.2589 59.4565 34.355C57.401 34.4743 55.0243 35.7544 53.6708 37.3281C52.1796 39.0166 51.3033 41.1042 51.4914 43.4579C53.7121 43.6277 55.74 42.4853 57.4101 40.5353Z" fill="white"/>
</svg>
