<svg width="100" height="100" viewBox="0 0 100 100" fill="none" xmlns="http://www.w3.org/2000/svg">
<rect width="100" height="100" rx="50" fill="#9C6FF8"/>
<g clip-path="url(#clip0_2422_14780)">
<path d="M65.0991 39.2942L62.2241 33.5442C62.1046 33.3054 61.9209 33.1046 61.6936 32.9643C61.4664 32.824 61.2046 32.7498 60.9375 32.75H35.0625C34.7954 32.7498 34.5336 32.824 34.3064 32.9643C34.0791 33.1046 33.8954 33.3054 33.7759 33.5442L30.9009 39.2942C30.8019 39.4942 30.7502 39.7143 30.75 39.9375V64.375C30.75 65.1375 31.0529 65.8688 31.5921 66.4079C32.1312 66.9471 32.8625 67.25 33.625 67.25H62.375C63.1375 67.25 63.8688 66.9471 64.4079 66.4079C64.9471 65.8688 65.25 65.1375 65.25 64.375V39.9375C65.2498 39.7143 65.1981 39.4942 65.0991 39.2942ZM54.767 55.3295L49.017 61.0795C48.8835 61.2132 48.725 61.3192 48.5505 61.3916C48.376 61.4639 48.1889 61.5011 48 61.5011C47.8111 61.5011 47.624 61.4639 47.4495 61.3916C47.275 61.3192 47.1165 61.2132 46.983 61.0795L41.233 55.3295C40.9632 55.0598 40.8117 54.694 40.8117 54.3125C40.8117 53.931 40.9632 53.5652 41.233 53.2955C41.5027 53.0257 41.8685 52.8742 42.25 52.8742C42.6315 52.8742 42.9973 53.0257 43.267 53.2955L46.5625 56.5927V45.6875C46.5625 45.3063 46.714 44.9406 46.9835 44.671C47.2531 44.4015 47.6188 44.25 48 44.25C48.3812 44.25 48.7469 44.4015 49.0165 44.671C49.2861 44.9406 49.4375 45.3063 49.4375 45.6875V56.5927L52.733 53.2955C53.0027 53.0257 53.3685 52.8742 53.75 52.8742C54.1315 52.8742 54.4973 53.0257 54.767 53.2955C55.0368 53.5652 55.1883 53.931 55.1883 54.3125C55.1883 54.694 55.0368 55.0598 54.767 55.3295ZM34.5127 38.5L35.9502 35.625H60.0498L61.4873 38.5H34.5127Z" fill="white"/>
</g>
<defs>
<clipPath id="clip0_2422_14780">
<rect width="46" height="46" fill="white" transform="translate(25 27)"/>
</clipPath>
</defs>
</svg>
