<svg width="108" height="108" viewBox="0 0 108 108" fill="none" xmlns="http://www.w3.org/2000/svg">
<rect x="2" y="2" width="104" height="104" rx="52" fill="#4DB6AC" stroke="white" stroke-width="4"/>
<path d="M62.9891 59.7619L57.8837 54.6411L40.8235 71.8504C41.0291 71.7883 41.2472 71.6942 41.4802 71.5658C41.6548 71.4701 42.0793 71.2375 42.7033 70.8957L42.7404 70.8753C46.2517 68.9517 55.8927 63.67 62.9891 59.7619Z" fill="white"/>
<path d="M63.9589 59.2279C64.6157 58.8661 65.245 58.5189 65.8397 58.1909C66.2611 57.9585 66.665 57.7357 67.0489 57.5241L67.0509 57.523C69.4355 56.2087 71.0428 55.3229 71.2356 55.2268C72.1264 54.7516 73.0468 53.4944 71.2356 52.518C70.6748 52.2235 67.756 50.6182 63.9547 48.517L58.6327 53.8855L63.9589 59.2279Z" fill="white"/>
<path d="M62.9675 48.0018C59.8138 46.2767 42.619 36.8715 41.4799 36.2639C41.2636 36.1349 41.0331 36.0482 40.8012 36L57.8816 53.1321L62.9675 48.0018Z" fill="white"/>
<path d="M39.4955 36.1971L57.1326 53.8877L39.4296 71.7453C38.9291 71.4069 38.667 70.6993 38.667 69.8058V38.105C38.667 37.1168 39.0144 36.5088 39.4955 36.1971Z" fill="white"/>
</svg>
