<svg width="100" height="100" viewBox="0 0 100 100" fill="none" xmlns="http://www.w3.org/2000/svg">
<rect width="100" height="100" rx="50" fill="#FF9F2F"/>
<g clip-path="url(#clip0_2422_15085)">
<path d="M50.7856 30.7232C50.5493 30.5779 50.2773 30.501 49.9999 30.501C49.7226 30.501 49.4506 30.5779 49.2143 30.7232C47.3328 31.9458 45.5983 33.3809 44.0449 35C40.5818 38.5869 38.7499 42.4813 38.7499 46.25C38.7499 49.2337 39.9352 52.0952 42.045 54.205C44.1548 56.3148 47.0163 57.5 49.9999 57.5C52.9836 57.5 55.8451 56.3148 57.9549 54.205C60.0647 52.0952 61.2499 49.2337 61.2499 46.25C61.2499 37.265 51.2131 30.9857 50.7856 30.7232ZM49.9999 54.5C48.8065 54.5 47.6619 54.0259 46.818 53.182C45.974 52.3381 45.4999 51.1935 45.4999 50C45.4999 45.5 49.9999 42.5 49.9999 42.5C49.9999 42.5 54.4999 45.5 54.4999 50C54.4999 51.1935 54.0258 52.3381 53.1819 53.182C52.338 54.0259 51.1934 54.5 49.9999 54.5ZM67.9287 68.4538C67.869 68.6416 67.7729 68.8157 67.6459 68.9664C67.5189 69.117 67.3635 69.2411 67.1885 69.3317C67.0135 69.4222 66.8224 69.4774 66.6261 69.494C66.4297 69.5107 66.2321 69.4885 66.0443 69.4288L49.9999 64.3232L33.9556 69.4288C33.7678 69.4885 33.5701 69.5107 33.3738 69.494C33.1775 69.4773 32.9864 69.4221 32.8114 69.3316C32.6365 69.241 32.481 69.1169 32.354 68.9663C32.227 68.8157 32.1309 68.6415 32.0712 68.4538C32.0115 68.266 31.9893 68.0684 32.006 67.8721C32.0227 67.6758 32.0779 67.4847 32.1684 67.3097C32.259 67.1347 32.3831 66.9793 32.5337 66.8522C32.6843 66.7252 32.8584 66.6291 33.0462 66.5694L45.0462 62.75L33.0462 58.9288C32.8533 58.8736 32.6734 58.7802 32.5172 58.6542C32.361 58.5282 32.2317 58.3721 32.1369 58.1952C32.0421 58.0183 31.9837 57.8242 31.9653 57.6244C31.9469 57.4246 31.9688 57.2231 32.0296 57.0318C32.0905 56.8406 32.1891 56.6635 32.3196 56.5111C32.4501 56.3587 32.6099 56.234 32.7895 56.1444C32.9691 56.0548 33.1648 56.0022 33.3651 55.9897C33.5654 55.9771 33.7662 56.0049 33.9556 56.0713L49.9999 61.175L66.0443 56.0713C66.2337 56.0049 66.4345 55.9771 66.6347 55.9897C66.835 56.0022 67.0308 56.0548 67.2104 56.1444C67.3899 56.234 67.5497 56.3587 67.6803 56.5111C67.8108 56.6635 67.9094 56.8406 67.9703 57.0318C68.0311 57.2231 68.053 57.4246 68.0346 57.6244C68.0161 57.8242 67.9578 58.0183 67.863 58.1952C67.7682 58.3721 67.6389 58.5282 67.4827 58.6542C67.3265 58.7802 67.1466 58.8736 66.9537 58.9288L54.9537 62.75L66.9537 66.5694C67.1415 66.6291 67.3156 66.7252 67.4663 66.8522C67.6169 66.9792 67.741 67.1346 67.8316 67.3096C67.9221 67.4846 67.9773 67.6757 67.9939 67.872C68.0106 68.0684 67.9884 68.266 67.9287 68.4538Z" fill="white"/>
</g>
<defs>
<clipPath id="clip0_2422_15085">
<rect width="48" height="48" fill="white" transform="translate(26 26)"/>
</clipPath>
</defs>
</svg>
