<svg width="70" height="70" viewBox="0 0 70 70" fill="none" xmlns="http://www.w3.org/2000/svg">
<rect width="70" height="70" rx="35" fill="#FFF6EB"/>
<g clip-path="url(#clip0_2422_14658)">
<path d="M45.7312 34.6825L31.7312 49.6825C31.5828 49.8408 31.387 49.9466 31.1732 49.9839C30.9595 50.0211 30.7394 49.9879 30.5462 49.8891C30.353 49.7903 30.1972 49.6314 30.1023 49.4363C30.0073 49.2412 29.9784 49.0205 30.0199 48.8075L31.8524 39.6412L24.6487 36.9362C24.494 36.8784 24.356 36.7831 24.2471 36.6589C24.1382 36.5347 24.0618 36.3854 24.0246 36.2245C23.9875 36.0635 23.9908 35.8959 24.0343 35.7365C24.0777 35.5772 24.16 35.431 24.2737 35.3112L38.2737 20.3112C38.422 20.1529 38.6179 20.0471 38.8316 20.0099C39.0454 19.9726 39.2655 20.0059 39.4586 20.1046C39.6518 20.2034 39.8076 20.3624 39.9026 20.5575C39.9975 20.7526 40.0264 20.9733 39.9849 21.1862L38.1474 30.3625L45.3512 33.0637C45.5047 33.122 45.6416 33.2172 45.7496 33.3409C45.8577 33.4646 45.9336 33.613 45.9707 33.773C46.0077 33.933 46.0048 34.0997 45.9622 34.2583C45.9195 34.417 45.8385 34.5626 45.7262 34.6825H45.7312Z" fill="#FF9F2F"/>
</g>
<defs>
<clipPath id="clip0_2422_14658">
<rect width="32" height="32" fill="white" transform="translate(19 19)"/>
</clipPath>
</defs>
</svg>
