<svg width="108" height="108" viewBox="0 0 108 108" fill="none" xmlns="http://www.w3.org/2000/svg">
<rect x="2" y="2" width="104" height="104" rx="52" fill="#9C6FF8" stroke="white" stroke-width="4"/>
<g clip-path="url(#clip0_2463_11088)">
<path d="M75.5625 68.375H72.6875V48.25C73.0687 48.25 73.4344 48.0985 73.704 47.829C73.9735 47.5594 74.125 47.1937 74.125 46.8125C74.125 46.4313 73.9735 46.0656 73.704 45.796C73.4344 45.5265 73.0687 45.375 72.6875 45.375H64.0625V39.625C64.4437 39.625 64.8094 39.4735 65.079 39.204C65.3486 38.9344 65.5 38.5687 65.5 38.1875C65.5 37.8063 65.3486 37.4406 65.079 37.171C64.8094 36.9015 64.4437 36.75 64.0625 36.75H38.1875C37.8063 36.75 37.4406 36.9015 37.171 37.171C36.9015 37.4406 36.75 37.8063 36.75 38.1875C36.75 38.5687 36.9015 38.9344 37.171 39.204C37.4406 39.4735 37.8063 39.625 38.1875 39.625V68.375H35.3125C34.9313 68.375 34.5656 68.5264 34.296 68.796C34.0265 69.0656 33.875 69.4313 33.875 69.8125C33.875 70.1937 34.0265 70.5594 34.296 70.829C34.5656 71.0985 34.9313 71.25 35.3125 71.25H75.5625C75.9437 71.25 76.3094 71.0985 76.579 70.829C76.8485 70.5594 77 70.1937 77 69.8125C77 69.4313 76.8485 69.0656 76.579 68.796C76.3094 68.5264 75.9437 68.375 75.5625 68.375ZM45.375 43.9375H48.25C48.6312 43.9375 48.9969 44.089 49.2665 44.3585C49.536 44.6281 49.6875 44.9938 49.6875 45.375C49.6875 45.7562 49.536 46.1219 49.2665 46.3915C48.9969 46.661 48.6312 46.8125 48.25 46.8125H45.375C44.9938 46.8125 44.6281 46.661 44.3585 46.3915C44.089 46.1219 43.9375 45.7562 43.9375 45.375C43.9375 44.9938 44.089 44.6281 44.3585 44.3585C44.6281 44.089 44.9938 43.9375 45.375 43.9375ZM43.9375 52.5625C43.9375 52.1813 44.089 51.8156 44.3585 51.546C44.6281 51.2765 44.9938 51.125 45.375 51.125H48.25C48.6312 51.125 48.9969 51.2765 49.2665 51.546C49.536 51.8156 49.6875 52.1813 49.6875 52.5625C49.6875 52.9437 49.536 53.3094 49.2665 53.579C48.9969 53.8485 48.6312 54 48.25 54H45.375C44.9938 54 44.6281 53.8485 44.3585 53.579C44.089 53.3094 43.9375 52.9437 43.9375 52.5625ZM55.4375 68.375H46.8125V59.75H55.4375V68.375ZM56.875 54H54C53.6188 54 53.2531 53.8485 52.9835 53.579C52.714 53.3094 52.5625 52.9437 52.5625 52.5625C52.5625 52.1813 52.714 51.8156 52.9835 51.546C53.2531 51.2765 53.6188 51.125 54 51.125H56.875C57.2562 51.125 57.6219 51.2765 57.8915 51.546C58.1611 51.8156 58.3125 52.1813 58.3125 52.5625C58.3125 52.9437 58.1611 53.3094 57.8915 53.579C57.6219 53.8485 57.2562 54 56.875 54ZM56.875 46.8125H54C53.6188 46.8125 53.2531 46.661 52.9835 46.3915C52.714 46.1219 52.5625 45.7562 52.5625 45.375C52.5625 44.9938 52.714 44.6281 52.9835 44.3585C53.2531 44.089 53.6188 43.9375 54 43.9375H56.875C57.2562 43.9375 57.6219 44.089 57.8915 44.3585C58.1611 44.6281 58.3125 44.9938 58.3125 45.375C58.3125 45.7562 58.1611 46.1219 57.8915 46.3915C57.6219 46.661 57.2562 46.8125 56.875 46.8125ZM69.8125 68.375H64.0625V48.25H69.8125V68.375Z" fill="white"/>
</g>
<defs>
<clipPath id="clip0_2463_11088">
<rect width="46" height="46" fill="white" transform="translate(31 31)"/>
</clipPath>
</defs>
</svg>
