<svg width="100" height="100" viewBox="0 0 100 100" fill="none" xmlns="http://www.w3.org/2000/svg">
<rect width="100" height="100" rx="50" fill="#34D1A5"/>
<g clip-path="url(#clip0_2463_11086)">
<path d="M68.125 45.6875H66.1844L61.1927 34.457C60.9668 33.9489 60.5984 33.5172 60.1321 33.2142C59.6658 32.9113 59.1217 32.75 58.5656 32.75H37.4344C36.8783 32.75 36.3342 32.9113 35.8679 33.2142C35.4016 33.5172 35.0332 33.9489 34.8073 34.457L29.8156 45.6875H27.875C27.4938 45.6875 27.1281 45.839 26.8585 46.1085C26.589 46.3781 26.4375 46.7438 26.4375 47.125C26.4375 47.5062 26.589 47.8719 26.8585 48.1415C27.1281 48.411 27.4938 48.5625 27.875 48.5625H29.3125V62.9375C29.3125 63.7 29.6154 64.4313 30.1546 64.9704C30.6937 65.5096 31.425 65.8125 32.1875 65.8125H36.5C37.2625 65.8125 37.9938 65.5096 38.5329 64.9704C39.0721 64.4313 39.375 63.7 39.375 62.9375V61.5H56.625V62.9375C56.625 63.7 56.9279 64.4313 57.4671 64.9704C58.0062 65.5096 58.7375 65.8125 59.5 65.8125H63.8125C64.575 65.8125 65.3063 65.5096 65.8454 64.9704C66.3846 64.4313 66.6875 63.7 66.6875 62.9375V48.5625H68.125C68.5062 48.5625 68.8719 48.411 69.1415 48.1415C69.411 47.8719 69.5625 47.5062 69.5625 47.125C69.5625 46.7438 69.411 46.3781 69.1415 46.1085C68.8719 45.839 68.5062 45.6875 68.125 45.6875ZM39.375 54.3125H35.0625C34.6813 54.3125 34.3156 54.1611 34.046 53.8915C33.7765 53.6219 33.625 53.2562 33.625 52.875C33.625 52.4938 33.7765 52.1281 34.046 51.8585C34.3156 51.5889 34.6813 51.4375 35.0625 51.4375H39.375C39.7562 51.4375 40.1219 51.5889 40.3915 51.8585C40.661 52.1281 40.8125 52.4938 40.8125 52.875C40.8125 53.2562 40.661 53.6219 40.3915 53.8915C40.1219 54.1611 39.7562 54.3125 39.375 54.3125ZM60.9375 54.3125H56.625C56.2438 54.3125 55.8781 54.1611 55.6085 53.8915C55.3389 53.6219 55.1875 53.2562 55.1875 52.875C55.1875 52.4938 55.3389 52.1281 55.6085 51.8585C55.8781 51.5889 56.2438 51.4375 56.625 51.4375H60.9375C61.3187 51.4375 61.6844 51.5889 61.954 51.8585C62.2235 52.1281 62.375 52.4938 62.375 52.875C62.375 53.2562 62.2235 53.6219 61.954 53.8915C61.6844 54.1611 61.3187 54.3125 60.9375 54.3125ZM32.962 45.6875L37.4344 35.625H58.5656L63.038 45.6875H32.962Z" fill="white"/>
</g>
<defs>
<clipPath id="clip0_2463_11086">
<rect width="46" height="46" fill="white" transform="translate(25 27)"/>
</clipPath>
</defs>
</svg>
