<svg width="108" height="108" viewBox="0 0 108 108" fill="none" xmlns="http://www.w3.org/2000/svg">
<rect x="2" y="2" width="104" height="104" rx="52" fill="#FF9F2F" stroke="white" stroke-width="4"/>
<g clip-path="url(#clip0_2463_11087)">
<path d="M67.8125 38.1875H36.1875C35.425 38.1875 34.6937 38.4904 34.1546 39.0296C33.6154 39.5687 33.3125 40.3 33.3125 41.0625V66.9375C33.3125 67.7 33.6154 68.4313 34.1546 68.9704C34.6937 69.5096 35.425 69.8125 36.1875 69.8125H67.8125C68.575 69.8125 69.3063 69.5096 69.8454 68.9704C70.3846 68.4313 70.6875 67.7 70.6875 66.9375V41.0625C70.6875 40.3 70.3846 39.5687 69.8454 39.0296C69.3063 38.4904 68.575 38.1875 67.8125 38.1875ZM52 59.75C49.7132 59.7476 47.5208 58.8382 45.9038 57.2212C44.2868 55.6042 43.3774 53.4118 43.375 51.125C43.375 50.7438 43.5265 50.3781 43.796 50.1085C44.0656 49.839 44.4313 49.6875 44.8125 49.6875C45.1937 49.6875 45.5594 49.839 45.829 50.1085C46.0985 50.3781 46.25 50.7438 46.25 51.125C46.25 52.65 46.8558 54.1125 47.9341 55.1909C49.0125 56.2692 50.475 56.875 52 56.875C53.525 56.875 54.9875 56.2692 56.0659 55.1909C57.1442 54.1125 57.75 52.65 57.75 51.125C57.75 50.7438 57.9014 50.3781 58.171 50.1085C58.4406 49.839 58.8063 49.6875 59.1875 49.6875C59.5687 49.6875 59.9344 49.839 60.204 50.1085C60.4736 50.3781 60.625 50.7438 60.625 51.125C60.6226 53.4118 59.7132 55.6042 58.0962 57.2212C56.4792 58.8382 54.2868 59.7476 52 59.75ZM36.1875 43.9375V41.0625H67.8125V43.9375H36.1875Z" fill="white"/>
</g>
<defs>
<clipPath id="clip0_2463_11087">
<rect width="46" height="46" fill="white" transform="translate(29 31)"/>
</clipPath>
</defs>
</svg>
