<svg width="28" height="28" viewBox="0 0 28 28" fill="none" xmlns="http://www.w3.org/2000/svg">
<g clip-path="url(#clip0_2422_14443)">
<path d="M0.575195 28H10.0683C14.5698 28 18.219 24.3508 18.219 19.8493H8.72588C4.22438 19.8493 0.575195 23.4985 0.575195 28Z" fill="#A4E78A"/>
<path d="M1 8.15069V20.137C5.5015 20.137 9.15069 16.4878 9.15069 11.9863V0C4.64919 0 1 3.64919 1 8.15069Z" fill="#114A55"/>
<path d="M27.4251 0H17.9319C13.4304 0 9.78125 3.64919 9.78125 8.15068H19.2744C23.7759 8.15068 27.4251 4.5015 27.4251 0Z" fill="#A4E78A"/>
<path d="M27.4251 19.3699V7.38356C22.9236 7.38356 19.2744 11.0327 19.2744 15.5342V27.5205C23.7759 27.5205 27.4251 23.8714 27.4251 19.3699Z" fill="#114A55"/>
</g>
<defs>
<clipPath id="clip0_2422_14443">
<rect width="28" height="28" fill="white"/>
</clipPath>
</defs>
</svg>
