<svg width="70" height="70" viewBox="0 0 70 70" fill="none" xmlns="http://www.w3.org/2000/svg">
<rect width="70" height="70" rx="35" fill="#F4EEFF"/>
<g clip-path="url(#clip0_2422_14668)">
<rect x="28.25" y="23.75" width="14.625" height="22.5" fill="white"/>
<path d="M35 20.375C32.1075 20.375 29.2799 21.2327 26.8748 22.8398C24.4697 24.4468 22.5952 26.7309 21.4883 29.4033C20.3813 32.0756 20.0917 35.0162 20.656 37.8532C21.2203 40.6902 22.6132 43.2961 24.6586 45.3414C26.7039 47.3868 29.3098 48.7797 32.1468 49.344C34.9838 49.9083 37.9244 49.6187 40.5968 48.5117C43.2691 47.4048 45.5532 45.5303 47.1602 43.1252C48.7673 40.7201 49.625 37.8926 49.625 35C49.6209 31.1225 48.0788 27.4049 45.3369 24.6631C42.5951 21.9213 38.8775 20.3791 35 20.375ZM37.25 42.875H36.125V44C36.125 44.2984 36.0065 44.5845 35.7955 44.7955C35.5845 45.0065 35.2984 45.125 35 45.125C34.7016 45.125 34.4155 45.0065 34.2045 44.7955C33.9935 44.5845 33.875 44.2984 33.875 44V42.875H32.75C31.5565 42.875 30.4119 42.4009 29.568 41.557C28.7241 40.7131 28.25 39.5685 28.25 38.375C28.25 38.0766 28.3685 37.7905 28.5795 37.5795C28.7905 37.3685 29.0766 37.25 29.375 37.25C29.6734 37.25 29.9595 37.3685 30.1705 37.5795C30.3815 37.7905 30.5 38.0766 30.5 38.375C30.5 38.9717 30.7371 39.544 31.159 39.966C31.581 40.3879 32.1533 40.625 32.75 40.625H37.25C37.8467 40.625 38.419 40.3879 38.841 39.966C39.263 39.544 39.5 38.9717 39.5 38.375C39.5 37.7783 39.263 37.206 38.841 36.784C38.419 36.3621 37.8467 36.125 37.25 36.125H33.3125C32.119 36.125 30.9744 35.6509 30.1305 34.807C29.2866 33.9631 28.8125 32.8185 28.8125 31.625C28.8125 30.4315 29.2866 29.2869 30.1305 28.443C30.9744 27.5991 32.119 27.125 33.3125 27.125H33.875V26C33.875 25.7016 33.9935 25.4155 34.2045 25.2045C34.4155 24.9935 34.7016 24.875 35 24.875C35.2984 24.875 35.5845 24.9935 35.7955 25.2045C36.0065 25.4155 36.125 25.7016 36.125 26V27.125H36.6875C37.881 27.125 39.0256 27.5991 39.8695 28.443C40.7134 29.2869 41.1875 30.4315 41.1875 31.625C41.1875 31.9234 41.069 32.2095 40.858 32.4205C40.647 32.6315 40.3609 32.75 40.0625 32.75C39.7641 32.75 39.478 32.6315 39.267 32.4205C39.056 32.2095 38.9375 31.9234 38.9375 31.625C38.9375 31.0283 38.7005 30.456 38.2785 30.034C37.8565 29.6121 37.2842 29.375 36.6875 29.375H33.3125C32.7158 29.375 32.1435 29.6121 31.7215 30.034C31.2996 30.456 31.0625 31.0283 31.0625 31.625C31.0625 32.2217 31.2996 32.794 31.7215 33.216C32.1435 33.6379 32.7158 33.875 33.3125 33.875H37.25C38.4435 33.875 39.5881 34.3491 40.432 35.193C41.2759 36.0369 41.75 37.1815 41.75 38.375C41.75 39.5685 41.2759 40.7131 40.432 41.557C39.5881 42.4009 38.4435 42.875 37.25 42.875Z" fill="#9C6FF8"/>
</g>
<defs>
<clipPath id="clip0_2422_14668">
<rect width="36" height="36" fill="white" transform="translate(17 17)"/>
</clipPath>
</defs>
</svg>
