<svg width="100" height="100" viewBox="0 0 100 100" fill="none" xmlns="http://www.w3.org/2000/svg">
<path d="M50 100C22.3858 100 -2.64276e-07 77.6142 -1.72545e-06 50C-3.18662e-06 22.3858 22.3858 1.42803e-05 50 1.30732e-05C77.6142 1.18662e-05 100 22.3858 100 50C100 77.6142 77.6142 100 50 100Z" fill="#31C440" fill-opacity="0.1"/>
<g clip-path="url(#clip0_2422_14998)">
<path d="M63.4998 52.9999H49.1186L53.3205 48.798C54.8396 49.5631 56.5134 49.971 58.2142 49.9905C59.9261 49.995 61.606 49.5266 63.0686 48.6368C67.5161 45.9443 69.8992 39.7118 69.4436 31.9643C69.4221 31.5973 69.2667 31.251 69.0068 30.9911C68.7469 30.7311 68.4005 30.5757 68.0336 30.5543C60.2861 30.0987 54.0536 32.4818 51.3592 36.9293C49.6061 39.8262 49.5611 43.3249 51.198 46.6793L48.4998 49.3774L46.2105 47.088C47.3355 44.6037 47.2548 42.0255 45.9498 39.873C43.9117 36.4999 39.2392 34.7018 33.4492 35.0412C33.0829 35.063 32.7373 35.2183 32.4778 35.4778C32.2183 35.7373 32.0629 36.0829 32.0411 36.4493C31.6998 42.2374 33.4998 46.9099 36.8748 48.9499C38.0039 49.6393 39.3019 50.0028 40.6248 49.9999C41.825 49.988 43.0089 49.7202 44.0973 49.2143L46.3792 51.4999L44.8792 52.9999H36.4998C36.102 52.9999 35.7205 53.1579 35.4392 53.4392C35.1579 53.7205 34.9998 54.1021 34.9998 54.4999C34.9998 54.8977 35.1579 55.2793 35.4392 55.5606C35.7205 55.8419 36.102 55.9999 36.4998 55.9999H38.298L40.7748 67.1505C40.9194 67.8187 41.2893 68.4168 41.8226 68.8446C42.3558 69.2724 43.02 69.5037 43.7036 69.4999H56.298C56.9814 69.503 57.6452 69.2714 58.1783 68.8438C58.7114 68.4161 59.0815 67.8184 59.2267 67.1505L61.7036 55.9999H63.4998C63.8977 55.9999 64.2792 55.8419 64.5605 55.5606C64.8418 55.2793 64.9998 54.8977 64.9998 54.4999C64.9998 54.1021 64.8418 53.7205 64.5605 53.4392C64.2792 53.1579 63.8977 52.9999 63.4998 52.9999Z" fill="#31C440"/>
</g>
<defs>
<clipPath id="clip0_2422_14998">
<rect width="48" height="48" fill="white" transform="translate(26 26)"/>
</clipPath>
</defs>
</svg>
