<svg width="100" height="100" viewBox="0 0 100 100" fill="none" xmlns="http://www.w3.org/2000/svg">
<path d="M50 100C22.3858 100 -2.64276e-07 77.6142 -1.72545e-06 50C-3.18662e-06 22.3858 22.3858 1.42803e-05 50 1.30732e-05C77.6142 1.18662e-05 100 22.3858 100 50C100 77.6142 77.6142 100 50 100Z" fill="#31C440"/>
<g clip-path="url(#clip0_2422_15006)">
<path d="M69.348 62.6583C69.2247 62.9108 69.0329 63.1236 68.7946 63.2725C68.5562 63.4213 68.2809 63.5002 67.9999 63.5002H51.4999V71.0002C51.4999 71.398 51.3418 71.7795 51.0605 72.0609C50.7792 72.3422 50.3977 72.5002 49.9999 72.5002C49.602 72.5002 49.2205 72.3422 48.9392 72.0609C48.6579 71.7795 48.4999 71.398 48.4999 71.0002V63.5002H31.9999C31.7192 63.5 31.4442 63.421 31.2062 63.2723C30.9681 63.1236 30.7766 62.911 30.6533 62.6589C30.5301 62.4067 30.4801 62.125 30.5089 61.8458C30.5378 61.5666 30.6445 61.3012 30.8167 61.0796L39.4417 50.0002H34.9999C34.7197 50.0002 34.4451 49.9218 34.2072 49.7737C33.9693 49.6257 33.7776 49.414 33.6539 49.1626C33.5302 48.9113 33.4793 48.6303 33.5071 48.3515C33.5349 48.0727 33.6402 47.8072 33.8111 47.5852L48.8111 28.0852C48.9512 27.9031 49.1313 27.7557 49.3374 27.6542C49.5435 27.5528 49.7701 27.5 49.9999 27.5C50.2296 27.5 50.4562 27.5528 50.6623 27.6542C50.8684 27.7557 51.0485 27.9031 51.1886 28.0852L66.1886 47.5852C66.3595 47.8072 66.4648 48.0727 66.4926 48.3515C66.5204 48.6303 66.4695 48.9113 66.3458 49.1626C66.2221 49.414 66.0304 49.6257 65.7925 49.7737C65.5546 49.9218 65.28 50.0002 64.9999 50.0002H60.5674L69.183 61.0796C69.3554 61.3009 69.4623 61.5662 69.4914 61.8453C69.5206 62.1244 69.4709 62.4061 69.348 62.6583Z" fill="white"/>
</g>
<defs>
<clipPath id="clip0_2422_15006">
<rect width="48" height="48" fill="white" transform="translate(26 26)"/>
</clipPath>
</defs>
</svg>
