<svg width="100" height="100" viewBox="0 0 100 100" fill="none" xmlns="http://www.w3.org/2000/svg">
<rect width="100" height="100" rx="50" fill="#9C6FF8"/>
<g clip-path="url(#clip0_2422_15075)">
<path d="M45.097 61.8392C44.2514 63.6879 41.4295 68.0004 33.5001 68.0004C33.1023 68.0004 32.7207 67.8424 32.4394 67.5611C32.1581 67.2798 32.0001 66.8982 32.0001 66.5004C32.0001 58.571 36.3126 55.7492 38.1614 54.9035C38.3406 54.8218 38.5342 54.7762 38.7311 54.7692C38.928 54.7623 39.1243 54.7942 39.3089 54.8632C39.4934 54.9321 39.6626 55.0367 39.8067 55.1711C39.9509 55.3054 40.0671 55.4668 40.1489 55.646C40.2306 55.8253 40.2762 56.0189 40.2832 56.2158C40.2901 56.4127 40.2582 56.609 40.1892 56.7936C40.1203 56.9781 40.0157 57.1473 39.8813 57.2914C39.747 57.4355 39.5856 57.5518 39.4064 57.6335C38.2007 58.1829 35.5401 59.951 35.0714 64.9292C40.0495 64.4604 41.8214 61.7998 42.367 60.5942C42.4487 60.4149 42.565 60.2535 42.7091 60.1192C42.8532 59.9849 43.0224 59.8802 43.207 59.8113C43.3915 59.7423 43.5878 59.7104 43.7847 59.7174C43.9816 59.7243 44.1752 59.7699 44.3545 59.8517C44.5337 59.9334 44.6951 60.0497 44.8295 60.1938C44.9638 60.3379 45.0684 60.5071 45.1374 60.6916C45.2063 60.8762 45.2382 61.0725 45.2313 61.2694C45.2244 61.4663 45.1787 61.6599 45.097 61.8392ZM67.972 34.8392C67.9275 34.1078 67.6169 33.4179 67.0988 32.8998C66.5807 32.3817 65.8909 32.0711 65.1595 32.0267C62.8007 31.886 56.7726 32.1017 51.772 37.1023L42.5001 46.3817C42.3609 46.5212 42.1955 46.6319 42.0135 46.7074C41.8315 46.783 41.6363 46.822 41.4392 46.8222C41.0412 46.8225 40.6593 46.6648 40.3776 46.3835C40.0959 46.1023 39.9374 45.7207 39.9371 45.3227C39.9367 44.9246 40.0945 44.5428 40.3757 44.261L45.3557 39.2792C45.46 39.1743 45.5309 39.0409 45.5596 38.8959C45.5883 38.7508 45.5734 38.6005 45.5169 38.4638C45.4604 38.3272 45.3648 38.2103 45.242 38.1278C45.1193 38.0454 44.9749 38.001 44.827 38.0004H39.9407C39.5456 37.9983 39.1539 38.0748 38.7886 38.2255C38.4232 38.3761 38.0915 38.5979 37.8126 38.8779L31.3814 45.3129C30.9869 45.7071 30.7102 46.2033 30.5821 46.746C30.4541 47.2887 30.4798 47.8563 30.6564 48.3852C30.833 48.9141 31.1536 49.3833 31.582 49.7401C32.0105 50.097 32.5299 50.3274 33.082 50.4054L40.2951 51.4123L48.5845 59.7017L49.5914 66.9185C49.6688 67.4707 49.8991 67.9901 50.2563 68.4182C50.6135 68.8463 51.0833 69.166 51.6126 69.341C51.9209 69.444 52.2438 69.4966 52.5689 69.4967C52.9624 69.4974 53.3523 69.4203 53.7159 69.2696C54.0796 69.119 54.4098 68.898 54.6876 68.6192L61.1226 62.1879C61.4018 61.9084 61.623 61.5766 61.7736 61.2114C61.9242 60.8462 62.0012 60.4548 62.0001 60.0598V55.1735C61.9999 55.0253 61.9557 54.8804 61.8731 54.7573C61.7906 54.6341 61.6734 54.5382 61.5363 54.4816C61.3993 54.425 61.2486 54.4103 61.1032 54.4394C60.9578 54.4684 60.8243 54.5399 60.7195 54.6448L55.7376 59.6248C55.5919 59.7707 55.4177 59.8849 55.2259 59.9604C55.034 60.0359 54.8287 60.0711 54.6226 60.0637C54.4166 60.0563 54.2143 60.0065 54.0284 59.9175C53.8424 59.8284 53.6769 59.702 53.542 59.546C53.2959 59.2484 53.1709 58.8691 53.1917 58.4834C53.2126 58.0978 53.3778 57.7342 53.6545 57.4648L62.8926 48.2267C67.897 43.2242 68.1126 37.196 67.972 34.8354V34.8392Z" fill="white"/>
</g>
<defs>
<clipPath id="clip0_2422_15075">
<rect width="48" height="48" fill="white" transform="translate(26 26)"/>
</clipPath>
</defs>
</svg>
